<svg xmlns="http://www.w3.org/2000/svg" version="1.1" xmlns:xlink="http://www.w3.org/1999/xlink" width="512" height="512" x="0" y="0" viewBox="0 0 53 53" style="enable-background:new 0 0 512 512" xml:space="preserve" class=""><g><path d="M45.499 2.619h-38c-2.757 0-5 2.243-5 5L2.5 35.146c0 2.757 2.244 5 5 5h8.68a1 1 0 1 0 0-2h-8.68c-1.654 0-3-1.346-3-3V10.979h44v24.167c0 1.654-1.345 3-3 3h-8.68a1 1 0 1 0 0 2h8.68c2.757 0 5-2.243 5-5V7.626c0-2.747-2.232-5.007-5.002-5.007zm3 6.36H4.5V7.626c0-1.654 1.346-3 3-3h38c1.65 0 2.998 1.34 2.998 2.993v1.36z" fill="#1f2125" opacity="1" data-original="#000000" class=""></path><path d="M10.115 5.799h-.396a1 1 0 1 0 0 2h.396a1 1 0 1 0 0-2zM14.026 5.799h-.396a1 1 0 1 0 0 2h.396a1 1 0 1 0 0-2zM17.937 5.799h-.396a1 1 0 1 0 0 2h.396a1 1 0 1 0 0-2zM6.497 29.427v3.125a1 1 0 0 0 .537.886c5.478 2.866 11.042 2.875 16.528 0a.999.999 0 0 0 .536-.886v-3.125c0-2.893-2.35-5.247-5.238-5.247h-.462c-.151 0-.3.034-.437.1-1.618.785-3.669.792-5.322-.002a.998.998 0 0 0-.432-.098h-.472c-2.889 0-5.238 2.354-5.238 5.247zm2 0a3.247 3.247 0 0 1 3.238-3.247h.252c2.072.923 4.577.918 6.632 0h.24a3.247 3.247 0 0 1 3.24 3.247v2.51c-4.566 2.224-9.027 2.223-13.602 0v-2.51zM15.302 22.557c2.485 0 4.506-2.029 4.506-4.522a4.511 4.511 0 0 0-4.506-4.506c-2.492 0-4.52 2.022-4.52 4.506a4.526 4.526 0 0 0 4.52 4.522zm0-7.028a2.509 2.509 0 0 1 2.506 2.506 2.517 2.517 0 0 1-2.506 2.522 2.524 2.524 0 0 1-2.52-2.522 2.516 2.516 0 0 1 2.52-2.506zM31.918 23.153h9.93a4.655 4.655 0 0 0 4.65-4.65 4.655 4.655 0 0 0-4.65-4.65h-9.93a4.655 4.655 0 0 0-4.65 4.65 4.655 4.655 0 0 0 4.65 4.65zm0-7.3h9.93a2.653 2.653 0 0 1 2.65 2.65c0 1.46-1.188 2.65-2.65 2.65h-9.93a2.653 2.653 0 0 1-2.65-2.65 2.653 2.653 0 0 1 2.65-2.65z" fill="#1f2125" opacity="1" data-original="#000000" class=""></path><path d="M32.897 19.503h7.973a1 1 0 1 0 0-2h-7.973a1 1 0 1 0 0 2zM31.918 34.27h9.93a4.655 4.655 0 0 0 4.65-4.65 4.655 4.655 0 0 0-4.65-4.65h-9.93a4.655 4.655 0 0 0-4.65 4.65 4.655 4.655 0 0 0 4.65 4.65zm0-7.3h9.93a2.653 2.653 0 0 1 2.65 2.65c0 1.462-1.188 2.65-2.65 2.65h-9.93a2.653 2.653 0 0 1-2.65-2.65 2.653 2.653 0 0 1 2.65-2.65z" fill="#1f2125" opacity="1" data-original="#000000" class=""></path><path d="M32.897 30.62h7.973a1 1 0 1 0 0-2h-7.973a1 1 0 1 0 0 2zM26.501 50.381c4.334 0 7.86-3.526 7.86-7.859s-3.526-7.86-7.86-7.86-7.86 3.526-7.86 7.86 3.526 7.86 7.86 7.86zm0-13.718c3.23 0 5.86 2.628 5.86 5.859s-2.63 5.86-5.86 5.86c-3.231 0-5.86-2.63-5.86-5.86s2.629-5.86 5.86-5.86z" fill="#1f2125" opacity="1" data-original="#000000" class=""></path><path d="M23.664 43.522H25.5v1.837a1 1 0 1 0 2 0v-1.837h1.837a1 1 0 1 0 0-2h-1.837v-1.837a1 1 0 1 0-2 0v1.837h-1.837a1 1 0 1 0 0 2z" fill="#1f2125" opacity="1" data-original="#000000" class=""></path></g></svg>