<svg xmlns="http://www.w3.org/2000/svg" version="1.1" xmlns:xlink="http://www.w3.org/1999/xlink" width="512" height="512" x="0" y="0" viewBox="0 0 512 512" style="enable-background:new 0 0 512 512" xml:space="preserve" class=""><g><path d="m276.316 202.039-23.28-19.674 3.011-30.333a8.725 8.725 0 0 0-4.093-8.316 8.726 8.726 0 0 0-9.27-.011l-25.906 16.06-27.916-12.235a8.723 8.723 0 0 0-9.175 1.321 8.725 8.725 0 0 0-2.875 8.814l7.269 29.601-20.262 22.767a8.727 8.727 0 0 0-1.58 9.136 8.723 8.723 0 0 0 7.493 5.458l30.399 2.234 15.394 26.31a8.718 8.718 0 0 0 7.561 4.344 8.726 8.726 0 0 0 8.144-5.462l11.518-28.221 29.782-6.511a8.727 8.727 0 0 0 6.641-6.465 8.728 8.728 0 0 0-2.855-8.817zm-39.916 7.897a8.78 8.78 0 0 0-6.253 5.259l-8.03 19.674-10.735-18.346a8.781 8.781 0 0 0-6.931-4.316l-21.192-1.557 14.129-15.877a8.78 8.78 0 0 0 1.965-7.927l-5.068-20.636 19.457 8.527a8.777 8.777 0 0 0 8.155-.577l18.061-11.197-2.098 21.145a8.779 8.779 0 0 0 3.069 7.574l16.23 13.715-20.759 4.539z" fill="#1f2125" opacity="1" data-original="#000000" class=""></path><path d="m491.943 386.842-24.885-21.981c-6.347-5.605-16.02-5.722-22.501-.273l-1.116.939c-1.1-3.964-3.11-7.716-6.059-10.892-3.603-3.881-8.178-6.536-13.218-7.73 2.907-8.928 1.028-19.133-5.799-26.488-4.856-5.231-11.458-8.257-18.59-8.52-.215-.008-.428-.005-.642-.008.327-6.924-2.011-13.968-7.087-19.437-4.796-5.167-11.297-8.177-18.329-8.505.634-7.264-1.68-14.758-7.019-20.509-4.856-5.231-11.458-8.257-18.59-8.52-7.134-.269-13.94 2.266-19.169 7.123l-3.544 3.292c-5.148-3.716-11.307-5.826-17.848-6.041a33.577 33.577 0 0 0-2.459.016l2.656-8.863c4.763-15.896 7.727-44.713 7.639-43.167.257.124.509.253.772.37a28.285 28.285 0 0 0 11.512 2.44c4.495 0 8.969-1.065 12.967-3.182 8.323-4.406 14.23-13.616 14.7-22.919.447-8.853-3.722-16.67-11.738-22.013a7.467 7.467 0 0 0-10.353 2.072 7.467 7.467 0 0 0 2.073 10.353c3.565 2.375 5.283 5.347 5.106 8.834-.207 4.102-3.056 8.508-6.774 10.476-3.409 1.806-7.781 1.921-11.411.301-2.318-1.033-5.323-3.232-6.473-7.835-3.425-13.709 4.429-27.316 13.522-43.07 16.471-28.537 36.969-64.05-5.939-114.766l-17.77-21.004A20.568 20.568 0 0 0 291.464.071a20.568 20.568 0 0 0-15.11 4.862 45.852 45.852 0 0 0-15.923 39.431l.887 8.972a14.562 14.562 0 0 1-4.727 12.215l9.621 11.44a29.503 29.503 0 0 0 9.964-25.124l-.887-8.972a30.914 30.914 0 0 1 10.736-26.587 5.72 5.72 0 0 1 4.215-1.356 5.738 5.738 0 0 1 3.937 2.026l17.77 21.004c36.126 42.701 20.718 69.397 4.406 97.658-2.552 4.421-5.124 8.883-7.451 13.407-6.169-21.2-16.494-40.91-30.77-57.883l-34.17-40.627.192-.161a13.322 13.322 0 0 0 4.73-9.11 13.321 13.321 0 0 0-3.098-9.786l-10.918-12.981a13.322 13.322 0 0 0-9.11-4.73 13.331 13.331 0 0 0-9.787 3.097L43.434 161.979c-5.659 4.759-6.391 13.235-1.632 18.896l10.918 12.981a13.322 13.322 0 0 0 9.111 4.73 13.303 13.303 0 0 0 9.785-3.098l.193-.163 12.833 15.259a14.572 14.572 0 0 1-12.744 2.531l-8.693-2.386a45.85 45.85 0 0 0-41.551 9.049 20.57 20.57 0 0 0-7.339 14.075 20.564 20.564 0 0 0 4.781 15.135l17.709 21.055c42.759 50.841 81.22 36.623 112.124 25.197 13.947-5.156 26.339-9.736 37.465-8.13a173.46 173.46 0 0 0 6.237 1.636c.345.135.689.274 1.032.424 4.343 1.908 6.004 5.241 6.633 7.7.984 3.85.133 8.14-2.221 11.197-2.566 3.333-7.389 5.394-11.468 4.911-3.467-.414-6.107-2.608-7.848-6.522a7.467 7.467 0 0 0-13.644 6.068c3.915 8.802 10.919 14.229 19.72 15.28a24.75 24.75 0 0 0 2.934.173c8.382-.001 16.993-4.123 22.134-10.8 5.168-6.71 6.984-15.684 4.857-24.004-.049-.19-.108-.375-.161-.563a184.32 184.32 0 0 0 20.641 1.167c7.458 0 15.002-.446 22.584-1.351l.661-.079a43.175 43.175 0 0 0-7.758 13.714l-29.347 72.186L64.838 498.616A7.465 7.465 0 0 0 69.389 512h177.372a7.468 7.468 0 0 0 5.348-2.256l9.879-10.143a7.466 7.466 0 0 0-10.696-10.419l-7.681 7.887H91.347l140.742-108.217c.104-.08.197-.167.295-.251.067-.057.136-.112.201-.172.238-.218.459-.448.663-.69.04-.048.077-.099.116-.149.186-.232.356-.473.511-.723.029-.047.061-.092.089-.14.176-.298.328-.605.46-.921.009-.021.022-.04.03-.061l30.192-74.264c.058-.143.112-.288.161-.434a28.257 28.257 0 0 1 7.405-11.53l21.443-20.182c3.682-3.466 8.43-5.286 13.399-5.12 4.691.155 9.003 2.096 12.141 5.467l.798.857.001.001.001.001 26.228 28.171.002.003.003.003.001.001.005.006.006.006 3.716 3.991c1.566 1.682 2.38 3.904 2.295 6.256-.091 2.526-1.187 4.889-3.084 6.652l-4.323 4.017c-2.991 2.778-7.241 3.303-10.541 1.621-.086-.047-.176-.086-.265-.13a8.505 8.505 0 0 1-2.101-1.644l-10.887-11.712c-3.891-4.185-9.207-6.596-14.968-6.788-5.903-.193-11.559 1.947-15.905 6.037a7.467 7.467 0 0 0-2.332 5.949c.036.567.061 1.128.076 1.686.008.314.007.625.009.937.002.24.006.481.003.719-.004.398-.018.792-.033 1.185-.005.143-.009.286-.016.429-.022.444-.053.885-.089 1.322l-.014.172a7.552 7.552 0 0 0-.045.562c-.697 6.912-3.195 13.098-7.56 18.763a7.465 7.465 0 1 0 11.827 9.112 52.957 52.957 0 0 0 6.373-10.589l63.499 86.849-1.515 1.274a7.427 7.427 0 0 0-2.631 1.565c-5.277 4.855-11.736 8.127-18.699 9.479l-46.751 3.36a7.466 7.466 0 0 0-4.813 2.237l-11.935 12.254a7.466 7.466 0 0 0 10.695 10.419l9.954-10.221 44.347-3.186c.085-.006.168-.023.252-.032a17.032 17.032 0 0 0 2.465 7.719l17.39 28.283a17.217 17.217 0 0 0 11.932 7.987 17.217 17.217 0 0 0 13.841-3.823l105.218-88.492a17.222 17.222 0 0 0 6.14-12.98 17.22 17.22 0 0 0-5.822-13.128zm-348.19-105.606c-30.609 11.316-59.519 22.003-95.519-20.802l-17.709-21.055c-.994-1.183-1.468-2.682-1.333-4.222s.862-2.935 2.048-3.926a30.919 30.919 0 0 1 28.016-6.102l8.693 2.386a29.51 29.51 0 0 0 26.319-5.487l11.712 13.926c14.31 17.015 32.008 30.591 51.895 40.307-4.734 1.506-9.449 3.247-14.122 4.975zm149.686-35.077-5.637 18.811a34.545 34.545 0 0 0-4.382 3.491l-7.143 6.723-20.222 2.416c-54.359 6.495-106.194-12.668-138.649-51.257l-34.169-40.627 13.339-11.219a7.465 7.465 0 0 0 .908-10.519 7.464 7.464 0 0 0-10.519-.909l-19.05 16.021-.003.002-.003.003-4.74 3.987-8.962-10.655L224.421 29.271l8.962 10.656-4.733 3.981-.01.007-.009.008-114.739 96.5a7.466 7.466 0 0 0 9.611 11.428l109.034-91.704 34.169 40.627c32.456 38.591 42.449 92.941 26.733 145.385zm125 114.968a11.422 11.422 0 0 1 8 3.667 11.496 11.496 0 0 1 1.282 13.954l-32.529 27.359a11.353 11.353 0 0 1-9.34-3.619c-4.311-4.644-4.041-11.93.6-16.243l4.713-4.379a27.272 27.272 0 0 0 2.487-2.041l18.206-16.913a11.495 11.495 0 0 1 6.581-1.785zm-26.792-31.908a11.682 11.682 0 0 1 7.574-2.402 11.709 11.709 0 0 1 8.2 3.758c4.419 4.759 4.143 12.228-.615 16.648l-4.3 3.995a26.94 26.94 0 0 0-2.48 2.034l-18.228 16.934a11.641 11.641 0 0 1-6.764 1.841 11.709 11.709 0 0 1-8.2-3.758c-4.129-4.448-4.156-11.26-.258-15.74.254-.219.508-.44.755-.669l23.317-21.662c.345-.32.676-.646.999-.979zm-39.57-36.129-16.057-17.247 3.081-2.863c2.306-2.142 5.308-3.237 8.454-3.142a11.709 11.709 0 0 1 8.2 3.758c4.419 4.759 4.142 12.228-.616 16.649l-3.062 2.845zm2.929 47.497 4.324-4.018c4.821-4.478 7.606-10.534 7.842-17.049.205-5.658-1.555-11.063-4.979-15.432l2.255-2.095a11.672 11.672 0 0 1 8.454-3.142 11.709 11.709 0 0 1 8.199 3.758c4.131 4.45 4.156 11.265.255 15.746a27.62 27.62 0 0 0-.751.664l-23.317 21.662c-.345.321-.679.649-1.003.983a11.613 11.613 0 0 1-6.017 2.345 24.57 24.57 0 0 0 4.738-3.422zm-52.185-12.528c.022-.563.042-1.125.047-1.693a6.98 6.98 0 0 1 2.717-.446c1.758.058 3.366.781 4.53 2.032l10.887 11.711a23.433 23.433 0 0 0 3.614 3.165 26.337 26.337 0 0 0 4.956 7.636c4.856 5.231 11.458 8.257 18.591 8.521.215.007.428.009.642.012-.326 6.922 2.012 13.965 7.087 19.432 3.638 3.919 8.256 6.6 13.343 7.81-2.972 8.88-1.133 19.077 5.673 26.408a26.19 26.19 0 0 0 6.477 5.072l-8.057 6.776-70.507-96.436zm179.193 73.462-105.218 88.492a2.276 2.276 0 0 1-1.849.511 2.276 2.276 0 0 1-1.594-1.067l-17.39-28.284a2.287 2.287 0 0 1 .479-2.967l97.719-82.187.004-.003a2.298 2.298 0 0 1 1.482-.537c.547 0 1.093.192 1.524.573l24.885 21.981c.688.608.783 1.36.778 1.755a2.266 2.266 0 0 1-.82 1.733z" fill="#1f2125" opacity="1" data-original="#000000" class=""></path></g></svg>