<svg xmlns="http://www.w3.org/2000/svg" version="1.1" xmlns:xlink="http://www.w3.org/1999/xlink" width="512" height="512" x="0" y="0" viewBox="0 0 64 64" style="enable-background:new 0 0 512 512" xml:space="preserve" class=""><g><path d="M38.731 18.874a1.192 1.192 0 0 1-1.381-.226 1.194 1.194 0 0 1-.226-1.378l.412-.822-1.787-.896-.413.824a3.194 3.194 0 0 0 .599 3.688 3.194 3.194 0 0 0 3.691.599l.822-.412-.896-1.787z" fill="#03A297" opacity="1" data-original="#000000" class=""></path><path d="M59.075 30.021a5.88 5.88 0 0 1 2.167-1.052l-.484-1.939a7.852 7.852 0 0 0-3.432 1.869l-.646-.404a9.819 9.819 0 0 0-1.29-.673A2 2 0 0 1 57 27v-2c-1.566 0-2.911.913-3.567 2.227A10.13 10.13 0 0 0 51.4 27a9.687 9.687 0 0 0-8.71 5.383 1.686 1.686 0 0 1-1.169.894l-2.6.52A2.396 2.396 0 0 0 37 36.141c0 .91.506 1.729 1.32 2.139l.407.203c-.071.225-.115.454-.161.683a20.927 20.927 0 0 0-5.536-4.049 10.93 10.93 0 0 1 .957-3.995c.367.058.735.095 1.101.095a7.152 7.152 0 0 0 6.372-3.9 2.632 2.632 0 0 0 3.362-3.143l-.54-2.16a2.989 2.989 0 0 1 .126-1.842l.906-2.265a5.5 5.5 0 0 0 .949.093 5.75 5.75 0 0 0 5.742-5.737v-.126a10.88 10.88 0 0 0-3.208-7.754l-.075-.075A11.201 11.201 0 0 0 40.753.997h-.008l-3.092.001c-9.073.003-17.149 6.096-19.64 14.817a17.14 17.14 0 0 1-7.69 10.024l-3.4 2.041A12.261 12.261 0 0 0 1 38.34c0 4.483 2.143 8.766 5.73 11.454l1.205.904C8.603 51.197 9 51.992 9 52.873c0 .541-.158 1.063-.457 1.51l-.697 1.045A5.021 5.021 0 0 0 7 58.223 4.784 4.784 0 0 0 11.777 63H34v-.005a28.626 28.626 0 0 0 13.731-3.591l.488-.271a5.41 5.41 0 0 0 2.78-4.727 5.39 5.39 0 0 0-1.844-4.057l.445-.741A3.332 3.332 0 0 1 52.442 48C58.264 48 63 43.264 63 37.442c0-2.998-1.467-5.737-3.925-7.421zm-22.692-3.484 1.984 1.488a5.137 5.137 0 0 1-1.731.935 3.378 3.378 0 0 1-.253-2.423zM11.777 61A2.78 2.78 0 0 1 9 58.223c0-.603.177-1.185.51-1.685l.697-1.044A4.743 4.743 0 0 0 11 52.825c0-1.46-.697-2.854-1.865-3.728l-1.205-.903A12.372 12.372 0 0 1 3 38.34c0-3.562 1.897-6.912 4.951-8.744l3.4-2.041a19.14 19.14 0 0 0 8.585-11.19c2.247-7.867 9.532-13.363 17.717-13.366l3.093-.001h.007c2.47 0 4.798.968 6.555 2.725l.075.075a8.895 8.895 0 0 1 2.622 6.339v.126C50.003 14.323 48.324 16 46.242 16 44.454 16 43 14.546 43 12.707c0-.941.766-1.707 1.764-1.707s1.896.555 2.342 1.447l1.789-.895C48.106 9.979 46.523 9 44.707 9 42.663 9 41 10.663 41 12.758c0 1.861.981 3.488 2.453 4.418l-.901 2.252a4.964 4.964 0 0 0-.208 3.069l.54 2.16a.632.632 0 0 1-.895.719l-1.436-.719-.857 1.717c-.018.036-.044.065-.063.101l-3.878-2.909-.586.88a5.395 5.395 0 0 0-.62 4.717 5.094 5.094 0 0 1-1.477-.362 5.13 5.13 0 0 1-2.229-1.843c.1-.48.158-.974.158-1.481a7.274 7.274 0 0 0-.766-3.242l-.632-1.266A5.73 5.73 0 0 1 29 18.343a5.578 5.578 0 0 1 3.384-5.136l1.2-.514a3.693 3.693 0 0 0 2.513 1.67l3.738.623.328-1.973-3.737-.623A1.7 1.7 0 0 1 35 10.707C35 9.766 35.766 9 36.764 9s1.896.555 2.342 1.447l1.789-.895C40.106 7.979 38.523 7 36.707 7A3.711 3.711 0 0 0 33 10.707c0 .02.005.039.005.059l-1.409.603C28.805 12.563 27 15.302 27 18.407a7.64 7.64 0 0 0 .813 3.455l.632 1.266c.364.725.555 1.537.555 2.349a5.265 5.265 0 0 1-4.604 5.217l-1.445.181C17.277 31.582 13 36.428 13 42.146v.363c.001 8.157 4.806 15.196 11.723 18.491zm35.471-3.614-.487.271A26.646 26.646 0 0 1 33.859 61h-.364C23.298 61 15.001 52.705 15 42.509v-.363a9.373 9.373 0 0 1 8.198-9.287l1.445-.181a7.256 7.256 0 0 0 5.386-3.593 7.103 7.103 0 0 0 2.034 1.44 12.966 12.966 0 0 0-.98 3.722 21.082 21.082 0 0 0-1.52-.521l-2.277-.684-.574 1.916 2.277.684a19.049 19.049 0 0 1 9.712 6.712 6.523 6.523 0 0 0 1.641 2.731 8.22 8.22 0 0 0-4.618 2.272A8.323 8.323 0 0 1 35 44c0-1.654-1.346-3-3-3s-3 1.346-3 3c0 3.142.81 6.17 2.336 8.873a9.775 9.775 0 0 1-5.451-2.758A9.777 9.777 0 0 1 23 43.154V39h-2v4.154c-.001 3.163 1.232 6.137 3.472 8.375S29.688 55 32.854 55h.167c2.087 0 4.148-.335 6.125-.995l.854-.283v-3.286a.99.99 0 0 1 .678-.941c.46-.152.98.059 1.2.498L42.382 51h3.211A3.41 3.41 0 0 1 49 54.407a3.412 3.412 0 0 1-1.752 2.979zm-13.502-4.412A15.997 15.997 0 0 1 31 44a1 1 0 0 1 2 0c0 2.173.668 4.256 1.931 6.022l1.835 2.569c-.993.219-2.002.34-3.02.383zM45.593 49h-1.977a3.006 3.006 0 0 0-3.572-1.402A2.987 2.987 0 0 0 38 50.436v.444l-1.234-1.728A6.228 6.228 0 0 1 41.472 47H47v-2h-2.068c-1.02 0-2.02-.351-2.815-.988a4.554 4.554 0 0 1-1.222-5.564l.447-.895-2.125-1.062a.39.39 0 0 1 .097-.734l2.6-.52a3.65 3.65 0 0 0 2.565-1.96 7.691 7.691 0 0 1 2.261-2.702l3.912 2.236a2.681 2.681 0 0 1 1.066 3.518l-1.128 2.255 2.901.967A.743.743 0 0 1 53.257 41h-2.875l-.276.553A10.524 10.524 0 0 0 49 46.236v1.047a5.238 5.238 0 0 0-1.114 1.296l-.45.75A5.394 5.394 0 0 0 45.593 49zm6.849-3c-.493 0-.976.074-1.441.206A8.526 8.526 0 0 1 51.642 43h1.614A2.746 2.746 0 0 0 56 40.257a2.74 2.74 0 0 0-1.876-2.603l-.714-.238.097-.193a4.711 4.711 0 0 0 .493-2.09 4.685 4.685 0 0 0-2.355-4.059l-2.82-1.612a7.953 7.953 0 0 1 2.64-.463c.52 0 1.032.069 1.536.17V31h2v-1.138c.209.106.42.205.62.33l.416.26a7.859 7.859 0 0 0-1.006 2.307l1.939.484a5.859 5.859 0 0 1 .758-1.731A6.97 6.97 0 0 1 61 37.442C61 42.161 57.161 46 52.442 46z" fill="#03A297" opacity="1" data-original="#000000" class=""></path><path d="M49 37c-1.103 0-2-.897-2-2h-2c0 2.206 1.794 4 4 4z" fill="#03A297" opacity="1" data-original="#000000" class=""></path></g></svg>