<svg xmlns="http://www.w3.org/2000/svg" version="1.1" xmlns:xlink="http://www.w3.org/1999/xlink" width="512" height="512" x="0" y="0" viewBox="0 0 64 64" style="enable-background:new 0 0 512 512" xml:space="preserve" class=""><g><path fill="#03A297" fill-rule="evenodd" d="M18 15V9.5a1.5 1.5 0 0 0-3 0V15zm-5-5.5V15h-1a2 2 0 0 0-2 2v4a2 2 0 0 0 2 2v2.512A9.004 9.004 0 0 0 6 34v19a5 5 0 0 0 5 5h5a1 1 0 1 0 0-2h-5a3 3 0 0 1-3-3V34a7 7 0 0 1 7-7h3a7 7 0 0 1 7 7 1 1 0 1 0 2 0 9.004 9.004 0 0 0-6-8.488V23a2 2 0 0 0 2-2v-4a2 2 0 0 0-2-2h-1V9.5a3.5 3.5 0 1 0-7 0zM12 17v4h9v-4zm2 8.055V23h5v2.055A9.098 9.098 0 0 0 18 25h-3c-.338 0-.672.019-1 .055zM52 49h-3a1 1 0 1 1 0-2h5.048l1.658-34H41.263l.91 20.863a1 1 0 0 1-1.998.087L39.092 9.13A3 3 0 0 1 42.089 6H54.9a3 3 0 0 1 2.997 3.146L56 48.024V55a3 3 0 0 1-3 3h-5a1 1 0 1 1 0-2h5a1 1 0 0 0 1-1v-6zM41.175 11h14.629l.095-1.951A1 1 0 0 0 54.9 8H42.09a1 1 0 0 0-1 1.044zM20 39h24v4H20zm26 0v15a4 4 0 0 1-4 4H22a4 4 0 0 1-4-4V39a2 2 0 0 1 2-2h24a2 2 0 0 1 2 2zm-26 6h24v9a2 2 0 0 1-2 2H22a2 2 0 0 1-2-2zm32.611-30.03a1 1 0 0 1 .95 1.047L53.5 17.3A1 1 0 1 1 51.5 17.2l.063-1.281a1 1 0 0 1 1.047-.95zm-.25 5.125a1 1 0 0 1 .95 1.048l-1.062 21.78a1 1 0 1 1-1.998-.097l1.063-21.781a1 1 0 0 1 1.047-.95zM29.307 23A6.001 6.001 0 0 0 31 21.307 6.003 6.003 0 0 0 32.693 23 6.002 6.002 0 0 0 31 24.693 6 6 0 0 0 29.307 23zm.755-4.465c.322-.871 1.554-.871 1.876 0l.314.85a4 4 0 0 0 2.364 2.363l.85.314c.87.322.87 1.554 0 1.876l-.85.314a4 4 0 0 0-2.364 2.364l-.314.85c-.322.87-1.554.87-1.876 0l-.314-.85a4 4 0 0 0-2.364-2.364l-.85-.314c-.87-.322-.87-1.554 0-1.876l.85-.314a4 4 0 0 0 2.364-2.364zM10 47a1 1 0 1 0 2 0V33a1 1 0 1 0-2 0zm13 7a1 1 0 0 1-1-1v-5a1 1 0 1 1 2 0v5a1 1 0 0 1-1 1zm-11-3a1 1 0 1 0-2 0v2a1 1 0 1 0 2 0z" clip-rule="evenodd" opacity="1" data-original="#000000" class=""></path></g></svg>