<svg xmlns="http://www.w3.org/2000/svg" version="1.1" xmlns:xlink="http://www.w3.org/1999/xlink" width="512" height="512" x="0" y="0" viewBox="0 0 512 512" style="enable-background:new 0 0 512 512" xml:space="preserve" class=""><g><path d="M335.359 370.505c-13.695 0-24.837 11.142-24.837 24.837s11.142 24.838 24.837 24.838 24.838-11.143 24.838-24.838-11.143-24.837-24.838-24.837zm0 34.673c-5.423 0-9.835-4.412-9.835-9.836 0-5.423 4.412-9.835 9.835-9.835 5.424 0 9.836 4.412 9.836 9.835-.001 5.424-4.412 9.836-9.836 9.836z" fill="#1f2125" opacity="1" data-original="#000000"></path><path d="M464.616 468.137h-4.782c1.026-4.321.343-1.157.545-77.583a7.5 7.5 0 0 0-7.501-7.501 7.5 7.5 0 0 0-7.501 7.501v73.083c0 2.439-2.061 4.501-4.501 4.501H229.84c-2.439 0-4.501-2.061-4.501-4.501V327.052c0-2.439 2.061-4.501 4.501-4.501h211.036c2.439 0 4.501 2.061 4.501 4.501v28.496a7.5 7.5 0 0 0 7.501 7.501 7.5 7.5 0 0 0 7.501-7.501v-28.496c0-10.754-8.75-19.503-19.503-19.503H281.813l-16.728-5.69a3.128 3.128 0 0 1-2.112-2.96v-18.384c27.227-16.182 44.723-44.032 47.916-74.439 22.956 1.064 38.692-20.855 29.167-39.863V105.06c0-44.224-24.051-59.608-31.399-63.276-42.378-50.59-129.727-57.95-183.398-7.108-4.95 4.648-1.624 12.97 5.137 12.97 5.525 0 4.682-3.868 21.758-14.97 1.265-.821 3.717-2.268 3.616-2.208C200 3.919 265.245 12.052 298.137 52.61c.842 1.037 1.867 1.802 3.119 2.27.972.39 23.797 9.996 23.797 50.181v47.344c-4.162-1.762-8.724-2.665-13.588-2.529V125.34c0-6.224-4.689-11.368-10.906-11.968-12.606-1.217-19.67-9.431-23.377-16.106-4.639-8.354-15.714-10.356-22.975-4.151-33.447 28.593-71.957 30.045-98.378 26.233-20.021-2.891-38.527 10.774-41.745 30.537a32.434 32.434 0 0 0-14.067 2.518c.47-23.36-3.497-48.647 15.008-80.914a7.501 7.501 0 0 0-13.013-7.465c-11.286 19.68-16.743 42.415-16.889 58.574-.187 4.838-.074 3.067-.107 43.612-9.538 19.034 6.26 40.925 29.167 39.863 3.287 31.293 21.833 60.128 50.717 76.054v16.769c0 1.337-.85 2.525-2.109 2.958-29.733 10.395 5.306-2.245-72.648 25.399-6.805 2.017-5.296 1.492-7.982 2.587-16.72 7.023-27.053 20.451-30.393 36.967-23.399 117.529-22.51 110.865-22.351 117.255.73 18.526 12.582 27.936 30.834 27.936h178.266a7.5 7.5 0 0 0 7.501-7.501 7.5 7.5 0 0 0-7.501-7.501h-24.581c-10.485-.002-13.957-13.858-7.831-13.858h258.514c6.136 0 2.624 13.858-7.831 13.858H273.521a7.5 7.5 0 0 0-7.501 7.501 7.5 7.5 0 0 0 7.501 7.501h183.263c14.252 0 25.847-11.596 25.847-25.848.001-9.932-8.08-18.013-18.015-18.013zM311.465 164.883c8.649-.457 16.394 5.37 16.394 13.1 0 7.806-7.826 13.554-16.394 13.101v-26.201zm-197.861 26.2c-8.649.459-16.394-5.37-16.394-13.1 0-7.806 7.826-13.554 16.394-13.101v26.201zm15.122 8.61c-.19-3.471-.097-2.216-.12-40.877.225-1.26-1.614-11.57 7.529-19.489a21.99 21.99 0 0 1 17.55-5.13c29.483 4.259 72.551 2.563 110.269-29.678l.111.029c7.245 13.048 18.678 21.285 32.397 23.421 0 67.803.879 74.413-2.492 87.835-2.074 8.295-5.653 16.669-10.007 23.697-44.02 69.575-151.135 42.223-155.237-39.808zM97.999 496.998H60.248c-12.841 0-15.143-6.077-15.713-11.372-.594-5.52.63-7.996 5.795-34.793h47.669v46.165zm108.103-28.86v-.001c-12.189 0-21.752 11.807-16.553 26.58a28.3 28.3 0 0 0 .923 2.282h-77.47v-70.701a7.5 7.5 0 0 0-7.501-7.501A7.5 7.5 0 0 0 98 426.298v9.534H53.317c14.15-71.02 13.338-68.048 14.881-72.141 3.088-8.108 7.688-12.853 14.289-17.209 5.869-3.385 6.534-3.198 12.044-4.879.397-.113-2.253.808 43.238-15.307l.004-.001 27.169-9.317c.182 13.018 8.522 24.49 20.89 28.631 7.83 2.623 16.063 4.068 24.506 4.328.476 114.14-.683 113.11.524 118.201h-4.76zm4.235-141.088v7.886c-6.816-.252-13.444-1.444-19.742-3.555a15.624 15.624 0 0 1-10.668-14.837c-.018-18.202.029-7.088-.028-27.735 31.693 11.023 56.636 2.278 58.331 2.149l-.017-.061.101-.028.018.061c2.613-.85 3.491-.787 9.638-3.152v19.766h-18.129c-10.754.002-19.504 8.752-19.504 19.506z" fill="#1f2125" opacity="1" data-original="#000000"></path></g></svg>