<svg xmlns="http://www.w3.org/2000/svg" version="1.1" xmlns:xlink="http://www.w3.org/1999/xlink" width="512" height="512" x="0" y="0" viewBox="0 0 512 512" style="enable-background:new 0 0 512 512" xml:space="preserve" class=""><g><path d="M481.544 322.008c3.504 12.414 5.378 25.511 5.378 39.047 0 79.223-64.223 143.445-143.445 143.445-42.853 0-81.318-18.791-107.602-48.584M284.602 118.961c-5.938-2.916-13.312-1.919-18.251 3.02l-16.973 16.973c-4.605 4.605-11.578 5.995-17.533 3.357-1.85-.82-3.723-1.595-5.62-2.324-6.08-2.338-10.026-8.26-10.026-14.773v-24.005c0-8.783-7.12-15.904-15.903-15.904h-36.229c-8.783 0-15.903 7.12-15.903 15.904v24.005c0 6.514-3.947 12.435-10.026 14.773-1.896.729-3.77 1.504-5.62 2.324-5.955 2.639-12.928 1.249-17.533-3.357L98.013 121.98c-6.211-6.21-16.28-6.21-22.491 0l-25.617 25.618c-6.211 6.21-6.211 16.28 0 22.491l16.973 16.973c4.605 4.605 5.995 11.578 3.357 17.533-.82 1.85-1.595 3.723-2.324 5.62-2.338 6.08-8.26 10.026-14.773 10.026H29.131c-8.783 0-15.903 7.12-15.903 15.903v36.229c0 8.783 7.12 15.903 15.903 15.903h24.005c6.514 0 12.435 3.947 14.773 10.026a120.372 120.372 0 0 0 2.324 5.62c2.639 5.955 1.249 12.927-3.357 17.533l-16.973 16.973c-6.211 6.211-6.211 16.28 0 22.491l25.617 25.618c6.211 6.21 16.28 6.21 22.491 0l16.973-16.973c4.605-4.605 11.578-5.995 17.533-3.357 1.85.82 3.723 1.595 5.62 2.324 6.08 2.338 10.026 8.26 10.026 14.773v24.005c0 8.783 7.12 15.904 15.903 15.904h36.229c8.783 0 15.903-7.12 15.903-15.904v-24.005c0-6.514 3.947-12.435 10.026-14.773 1.896-.729 3.77-1.504 5.62-2.324 5.424-2.404 11.687-1.455 16.242 2.212" style="stroke-width:15;stroke-linecap:round;stroke-linejoin:round;stroke-miterlimit:10;" fill="none" stroke="#1f2125" stroke-width="15" stroke-linecap="round" stroke-linejoin="round" stroke-miterlimit="10" data-original="#000000" opacity="1" class=""></path><path d="M113.096 271.758c7.801 30.892 35.77 53.758 69.085 53.758 39.354 0 71.258-31.903 71.258-71.258S221.536 183 182.182 183c-33.315 0-61.284 22.866-69.085 53.758" style="stroke-width:15;stroke-linecap:round;stroke-linejoin:round;stroke-miterlimit:10;" fill="none" stroke="#1f2125" stroke-width="15" stroke-linecap="round" stroke-linejoin="round" stroke-miterlimit="10" data-original="#000000" opacity="1" class=""></path><circle cx="182.182" cy="254.258" r="34.77" style="stroke-width:15;stroke-linecap:round;stroke-linejoin:round;stroke-miterlimit:10;" fill="none" stroke="#1f2125" stroke-width="15" stroke-linecap="round" stroke-linejoin="round" stroke-miterlimit="10" data-original="#000000" opacity="1" class=""></circle><path d="M413.581 96.947h-68.309a6.68 6.68 0 0 1-6.68-6.68V51.223c0-24.329-19.86-43.979-44.188-43.721h0a9.908 9.908 0 0 0-9.802 9.907V43M405.533 288.248h17.304M284.602 78v156.403c0 15.958 6.948 30.287 17.976 40.147" style="stroke-width:15;stroke-linecap:round;stroke-linejoin:round;stroke-miterlimit:10;" fill="none" stroke="#1f2125" stroke-width="15" stroke-linecap="round" stroke-linejoin="round" stroke-miterlimit="10" data-original="#000000" opacity="1" class=""></path><path d="M292.026 441.722c14.857 9.496 32.511 15.001 51.451 15.001 52.836 0 95.669-42.832 95.669-95.669s-42.832-95.669-95.669-95.669-95.669 42.832-95.669 95.669c0 21.244 6.929 40.868 18.644 56.744" style="stroke-width:15;stroke-linecap:round;stroke-linejoin:round;stroke-miterlimit:10;" fill="none" stroke="#1f2125" stroke-width="15" stroke-linecap="round" stroke-linejoin="round" stroke-miterlimit="10" data-original="#000000" opacity="1" class=""></path><path d="m296.186 356.436 36.184 41.37 58.398-66.095M481.042 264.336h0c0-13.207-10.706-23.913-23.913-23.913h-34.293c-13.207 0-23.913 10.706-23.913 23.913v0c0 13.207 10.706 23.913 23.913 23.913h34.293c13.207-.001 23.913-10.707 23.913-23.913z" style="stroke-width:15;stroke-linecap:round;stroke-linejoin:round;stroke-miterlimit:10;" fill="none" stroke="#1f2125" stroke-width="15" stroke-linecap="round" stroke-linejoin="round" stroke-miterlimit="10" data-original="#000000" opacity="1" class=""></path><path d="M474.86 192.598h-61.279c-13.207 0-23.913 10.706-23.913 23.913v0c0 13.207 10.706 23.913 23.913 23.913h61.279c13.207 0 23.913-10.706 23.913-23.913v0c0-13.207-10.706-23.913-23.913-23.913zM474.86 96.947h-61.279c-13.207 0-23.913 10.706-23.913 23.913v0c0 13.207 10.706 23.913 23.913 23.913h61.279c13.207 0 23.913-10.706 23.913-23.913v0c0-13.207-10.706-23.913-23.913-23.913z" style="stroke-width:15;stroke-linecap:round;stroke-linejoin:round;stroke-miterlimit:10;" fill="none" stroke="#1f2125" stroke-width="15" stroke-linecap="round" stroke-linejoin="round" stroke-miterlimit="10" data-original="#000000" opacity="1" class=""></path><path d="M474.86 144.772h-61.279c-13.207 0-23.913 10.706-23.913 23.913v0c0 13.207 10.706 23.913 23.913 23.913h61.279c13.207 0 23.913-10.706 23.913-23.913v0c0-13.207-10.706-23.913-23.913-23.913z" style="stroke-width:15;stroke-linecap:round;stroke-linejoin:round;stroke-miterlimit:10;" fill="none" stroke="#1f2125" stroke-width="15" stroke-linecap="round" stroke-linejoin="round" stroke-miterlimit="10" data-original="#000000" opacity="1" class=""></path></g></svg>