<svg xmlns="http://www.w3.org/2000/svg" version="1.1" xmlns:xlink="http://www.w3.org/1999/xlink" width="512" height="512" x="0" y="0" viewBox="0 0 512 512" style="enable-background:new 0 0 512 512" xml:space="preserve" class=""><g><path d="M88 72h160a8 8 0 0 0 0-16H88a8 8 0 0 0 0 16Z" fill="#03A297" opacity="1" data-original="#000000" class=""></path><path d="M448 228.128v-26.259A23.943 23.943 0 0 0 456 184v-16a24.028 24.028 0 0 0-24-24h-80a24.028 24.028 0 0 0-24 24v16a23.943 23.943 0 0 0 8 17.869v26.259a72.047 72.047 0 0 0-23.279 13.639l7.273-185.454c0-.1.006-.209.006-.313V24a8 8 0 0 0-8-8H24a8 8 0 0 0-8 8v32c0 .1 0 .209.006.313l16 408a8 8 0 0 0 5.7 7.35C41.014 472.656 119.476 496 176 496c46.876 0 98.206-16.012 116.21-22.168A40.037 40.037 0 0 0 328 496h128a40.045 40.045 0 0 0 40-40V296a72.114 72.114 0 0 0-48-67.872ZM344 168a8.009 8.009 0 0 1 8-8h80a8.009 8.009 0 0 1 8 8v16a8.009 8.009 0 0 1-8 8h-80a8.009 8.009 0 0 1-8-8Zm8 40h80v16.455a72.383 72.383 0 0 0-8-.455h-64a72.383 72.383 0 0 0-8 .455Zm-48 240V312h176v136Zm-128 32c-45.873 0-109.394-16.808-128.233-22.093L32.634 72H56a8 8 0 0 0 0-16H32.006L32 55.844V32h272v23.844l-.006.156H280a8 8 0 0 0 0 16h23.366l-7.5 191.346A71.526 71.526 0 0 0 288 296v160c0 .778.028 1.55.072 2.317C272 463.821 220.918 480 176 480Zm280 0H328a24.039 24.039 0 0 1-22.624-16h173.248A24.039 24.039 0 0 1 456 480ZM304 296a56.063 56.063 0 0 1 56-56h64a56.063 56.063 0 0 1 56 56Z" fill="#03A297" opacity="1" data-original="#000000" class=""></path><path d="M432 352h-32c-.461 0-.919.016-1.374.042V352a24 24 0 0 0-40.97-16.971l-11.309 11.309-11.31 11.309A24 24 0 0 0 368.97 391.6l8.2-8.2A24.038 24.038 0 0 0 400 400h32a24 24 0 0 0 0-48Zm-63.029-5.657a8 8 0 1 1 11.313 11.313l-5.657 5.657L363.314 352l5.657-5.656Zm-22.627 33.942a8.011 8.011 0 0 1 0-11.314l5.656-5.657 11.314 11.313-5.657 5.657a8.009 8.009 0 0 1-11.313.001ZM392 376a8.009 8.009 0 0 1 8-8h8v16h-8a8.009 8.009 0 0 1-8-8Zm40 8h-8v-16h8a8 8 0 0 1 0 16ZM408 416h-32a8 8 0 0 0 0 16h32a8 8 0 0 0 0-16ZM192 368a8 8 0 0 0 0-16h-32a8 8 0 0 0 0 16ZM224 384h-96a8 8 0 0 0 0 16h96a8 8 0 0 0 0-16ZM219.324 137.264A23.823 23.823 0 0 0 200.379 128H176a24 24 0 0 0 0 48h17.037c1.955 17.168 1.691 41.394-6.418 50.042A84.863 84.863 0 0 0 168 224c-16.75 0-32.523 4.911-44.221 13.235a40 40 0 1 0 0 69.53C135.477 315.089 151.25 320 168 320s32.523-4.911 44.221-13.235A39.989 39.989 0 0 0 232.006 312h.338a39.184 39.184 0 0 0 28.385-12.484 41.29 41.29 0 0 0 11.265-28.845c-.54-59.871-37.014-113.24-52.67-133.407Zm29.764 151.274a23.538 23.538 0 0 1-24.662 6.247c.61-.855 1.2-1.722 1.739-2.61a8 8 0 0 0-13.649-8.35C205.019 296.081 187.545 304 168 304s-37.019-7.919-44.516-20.175a8 8 0 0 0-13.649 8.35 44.126 44.126 0 0 0 1.733 2.6 24 24 0 1 1 0-45.552 44.8 44.8 0 0 0-1.733 2.6 8 8 0 1 0 13.649 8.35C130.981 247.919 148.455 240 168 240a63.219 63.219 0 0 1 29.822 7.049 8 8 0 1 0 7.566-14.1c-.986-.529-2-1.028-3.013-1.512 12.289-21.083 6.317-59.951 5.516-64.754A8 8 0 0 0 200 160h-24a8 8 0 0 1 0-16h24.379a7.925 7.925 0 0 1 6.306 3.076c11.439 14.734 48.8 67.2 49.31 123.738a25.362 25.362 0 0 1-6.907 17.724Z" fill="#03A297" opacity="1" data-original="#000000" class=""></path></g></svg>