<svg xmlns="http://www.w3.org/2000/svg" version="1.1" xmlns:xlink="http://www.w3.org/1999/xlink" width="512" height="512" x="0" y="0" viewBox="0 0 512 512" style="enable-background:new 0 0 512 512" xml:space="preserve" class=""><g><path d="M102.65 65.11H47.5c-22.091 0-40 17.909-40 40V464.5c0 22.091 17.909 40 40 40h227M272.35 65.11h55.15c22.091 0 40 17.909 40 40v35.66" style="stroke-width:15;stroke-linecap:round;stroke-linejoin:round;stroke-miterlimit:10;" fill="none" stroke="#03A297" stroke-width="15" stroke-linecap="round" stroke-linejoin="round" stroke-miterlimit="10" data-original="#000000" class="" opacity="1"></path><path d="M42.5 367.45v92.05c0 5.52 4.48 10 10 10h161.37M42.5 332.45V110.11c0-5.53 4.48-10 10-10h50.49" style="stroke-width:15;stroke-linecap:round;stroke-linejoin:round;stroke-miterlimit:10;" fill="none" stroke="#03A297" stroke-width="15" stroke-linecap="round" stroke-linejoin="round" stroke-miterlimit="10" data-original="#000000" class="" opacity="1"></path><path d="M205 115.71h47.5c11.05 0 20-8.95 20-20V67.5c0-11.05-8.95-20-20-20h-16.83c-4.35 0-8.05-3.11-8.85-7.38C223.36 21.56 207.07 7.5 187.5 7.5s-35.86 14.06-39.32 32.62c-.8 4.27-4.5 7.38-8.85 7.38H122.5c-11.05 0-20 8.95-20 20v28.21c0 11.05 8.95 20 20 20H170M134.617 85.712h105M187.5 47.5h0" style="stroke-width:15;stroke-linecap:round;stroke-linejoin:round;stroke-miterlimit:10;" fill="none" stroke="#03A297" stroke-width="15" stroke-linecap="round" stroke-linejoin="round" stroke-miterlimit="10" data-original="#000000" class="" opacity="1"></path><path d="M272.01 100.11h50.49c5.52 0 10 4.47 10 10v33.74M93.929 211.286 82.5 199.857M93.929 211.286l28.571-28.572M267.16 179.5H162.57M257.48 214.5h-94.91M93.929 286.286 82.5 274.857M93.929 286.286l28.571-28.572M235.55 254.5h-72.98M242.27 289.5h-79.7M93.929 361.286 82.5 349.857M93.929 361.286l28.571-28.572M231.72 329.5h-69.15M216.29 364.5h-53.72M306.743 445.012c0-7.602-6.163-13.765-13.765-13.765s-13.765 6.163-13.765 13.765M402.257 445.012c0-7.602 6.163-13.765 13.765-13.765s13.765 6.163 13.765 13.765M339.899 461.101c3.55 4.074 8.773 6.652 14.601 6.652 5.828 0 11.051-2.578 14.601-6.652" style="stroke-width:15;stroke-linecap:round;stroke-linejoin:round;stroke-miterlimit:10;" fill="none" stroke="#03A297" stroke-width="15" stroke-linecap="round" stroke-linejoin="round" stroke-miterlimit="10" data-original="#000000" class="" opacity="1"></path><path d="M243.57 316.22c.9-3.37 2.2-6.63 3.86-9.69 2.17-3.99 1.63-8.86-1.41-12.24-7.16-7.97-11.52-18.51-11.52-30.07 0-15.19 7.53-28.62 19.05-36.77 3.45-2.44 5.09-6.72 4.28-10.87-2.5-12.87.62-26.71 9.7-37.53 9.26-11.04 22.69-16.51 36.05-16.05 3.31.11 6.46-1.36 8.6-3.87 22.66-26.6 61.98-26.6 84.64 0 2.14 2.51 5.29 3.98 8.6 3.87 13.36-.46 26.79 5.01 36.05 16.05 9.08 10.82 12.2 24.66 9.7 37.53-.81 4.15.83 8.43 4.28 10.87 11.52 8.15 19.05 21.58 19.05 36.77 0 11.45-4.27 21.89-11.31 29.83-.28.32-.55.65-.79 1" style="stroke-width:15;stroke-linecap:round;stroke-linejoin:round;stroke-miterlimit:10;" fill="none" stroke="#03A297" stroke-width="15" stroke-linecap="round" stroke-linejoin="round" stroke-miterlimit="10" data-original="#000000" class="" opacity="1"></path><path d="M354.497 243.497c9.54-17.58 22.035-32.04 37.5-43.373M354.497 291.756c12.45-22.95 29.955-40.583 52.5-52.89M316.997 200.124c15.465 11.333 27.96 25.793 37.5 43.373M301.997 238.866c22.545 12.308 40.05 29.94 52.5 52.89M354.5 185.39v122.22M362.27 313.44c13.75-22.55 34.29-38.07 57.23-38.07 41.42 0 75 50.6 75 101.77 0 6.06-.47 11.85-1.37 17.36" style="stroke-width:15;stroke-linecap:round;stroke-linejoin:round;stroke-miterlimit:10;" fill="none" stroke="#03A297" stroke-width="15" stroke-linecap="round" stroke-linejoin="round" stroke-miterlimit="10" data-original="#000000" class="" opacity="1"></path><path d="M390.26 355.1c7.59-7.27 17.9-11.74 29.24-11.74 23.36 0 42.3 18.94 42.3 42.3 0 3.03-.32 5.99-.93 8.84M324.24 394.5H494.5c5.52 0 10 4.48 10 10v30c0 38.66-31.34 70-70 70h-160c-38.66 0-70-31.34-70-70v-30c0-5.52 4.48-10 10-10h74.74" style="stroke-width:15;stroke-linecap:round;stroke-linejoin:round;stroke-miterlimit:10;" fill="none" stroke="#03A297" stroke-width="15" stroke-linecap="round" stroke-linejoin="round" stroke-miterlimit="10" data-original="#000000" class="" opacity="1"></path><path d="M393.7 394.5c.53-3.94.8-7.96.8-12.05 0-49.71-40.29-90-90-90s-90 40.29-90 90c0 4.09.27 8.11.8 12.05" style="stroke-width:15;stroke-linecap:round;stroke-linejoin:round;stroke-miterlimit:10;" fill="none" stroke="#03A297" stroke-width="15" stroke-linecap="round" stroke-linejoin="round" stroke-miterlimit="10" data-original="#000000" class="" opacity="1"></path><path d="M363.29 394.5a60.5 60.5 0 0 0 1.21-12.05c0-33.14-26.86-60-60-60s-60 26.86-60 60c0 4.13.42 8.16 1.21 12.05M304 355.429v-2.984M326.714 365.689l2.286-1.918M282.286 365.689 280 363.771" style="stroke-width:15;stroke-linecap:round;stroke-linejoin:round;stroke-miterlimit:10;" fill="none" stroke="#03A297" stroke-width="15" stroke-linecap="round" stroke-linejoin="round" stroke-miterlimit="10" data-original="#000000" class="" opacity="1"></path></g></svg>