<svg xmlns="http://www.w3.org/2000/svg" version="1.1" xmlns:xlink="http://www.w3.org/1999/xlink" width="512" height="512" x="0" y="0" viewBox="0 0 512.001 512.001" style="enable-background:new 0 0 512 512" xml:space="preserve" class=""><g><path d="M380.383 324.795c23.944-.008 74.455-4.372 119.84-36.628 3.501-2.488 5.077-6.899 3.883-11.025-4.868-16.823-18.579-62.214-35.748-102.081" style="stroke-width:15;stroke-linecap:round;stroke-linejoin:round;stroke-miterlimit:10;" fill="none" stroke="#03A297" stroke-width="15" stroke-linecap="round" stroke-linejoin="round" stroke-miterlimit="10" data-original="#000000" class="" opacity="1"></path><path d="M454.129 145.255c-9.042-16.785-18.562-30.148-27.949-36.175-1.706-1.096-3.655-1.753-5.667-2.001l-31.49-3.88c-10.543-1.301-20.406 5.406-23.076 15.688l-4.771 18.357c-2.797 10.775 3.23 21.879 13.789 25.401l17.423 5.802a14.932 14.932 0 0 0 15.733-4.075 16.693 16.693 0 0 0 3.552-6.042l20.07 82.448c-7.484-3.972-18.22-6.226-32.66-1.571M431.742 240.779s8.504 3.576 12.853 14.968M113.37 239.356c-14.668-4.849-25.549-2.59-33.111 1.423l20.07-82.448a16.693 16.693 0 0 0 3.552 6.042 14.932 14.932 0 0 0 15.733 4.075l17.423-5.802c10.558-3.522 16.585-14.626 13.789-25.401l-4.771-18.357c-2.669-10.282-12.532-16.989-23.076-15.688l-31.49 3.88c-2.013.248-3.961.905-5.668 2.001-33.823 21.718-69.408 138.625-77.926 168.06-1.194 4.126.382 8.537 3.883 11.025 12.713 9.035 25.828 15.88 38.648 21.055M81.829 319.063c20.571 4.737 38.475 5.741 50.046 5.73" style="stroke-width:15;stroke-linecap:round;stroke-linejoin:round;stroke-miterlimit:10;" fill="none" stroke="#03A297" stroke-width="15" stroke-linecap="round" stroke-linejoin="round" stroke-miterlimit="10" data-original="#000000" class="" opacity="1"></path><path d="m345.728 357.138 31.397-31.397c32.678-32.678 32.678-85.659 0-118.337h0c-32.678-32.678-85.659-32.678-118.337 0l-2.787 2.787-2.788-2.787c-32.678-32.678-85.659-32.678-118.337 0h0c-32.678 32.678-32.678 85.659 0 118.337l113.778 113.778c4.057 4.057 10.636 4.057 14.694 0l59.166-59.166M294.814 79.341h-16.947V62.394c0-5.523-4.477-10-10-10h-23.734c-5.523 0-10 4.477-10 10v16.947h-16.947c-5.523 0-10 4.477-10 10v23.734c0 5.523 4.477 10 10 10h16.947v16.947c0 5.523 4.477 10 10 10h23.734c5.523 0 10-4.477 10-10v-16.947h16.947c5.523 0 10-4.477 10-10V89.341c0-5.523-4.477-10-10-10zM80.259 240.779s-8.504 3.576-12.853 14.968" style="stroke-width:15;stroke-linecap:round;stroke-linejoin:round;stroke-miterlimit:10;" fill="none" stroke="#03A297" stroke-width="15" stroke-linecap="round" stroke-linejoin="round" stroke-miterlimit="10" data-original="#000000" class="" opacity="1"></path><path d="M226.068 324.034c6.275 9.916 17.329 16.504 29.933 16.504s23.658-6.588 29.933-16.504M219.092 285.282v5.135M292.911 285.282v5.135M132.811 388.926h-16.947v-16.947c0-5.523-4.477-10-10-10H82.131c-5.523 0-10 4.477-10 10v16.947H55.184c-5.523 0-10 4.477-10 10v23.734c0 5.523 4.477 10 10 10h16.947v16.947c0 5.523 4.477 10 10 10h23.734c5.523 0 10-4.477 10-10V432.66h16.947c5.523 0 10-4.477 10-10v-23.734c-.001-5.523-4.478-10-10.001-10zM456.819 388.926h-16.947v-16.947c0-5.523-4.477-10-10-10h-23.734c-5.523 0-10 4.477-10 10v16.947h-16.947c-5.523 0-10 4.477-10 10v23.734c0 5.523 4.477 10 10 10h16.947v16.947c0 5.523 4.477 10 10 10h23.734c5.523 0 10-4.477 10-10V432.66h16.947c5.523 0 10-4.477 10-10v-23.734c0-5.523-4.477-10-10-10z" style="stroke-width:15;stroke-linecap:round;stroke-linejoin:round;stroke-miterlimit:10;" fill="none" stroke="#03A297" stroke-width="15" stroke-linecap="round" stroke-linejoin="round" stroke-miterlimit="10" data-original="#000000" class="" opacity="1"></path></g></svg>