<svg xmlns="http://www.w3.org/2000/svg" version="1.1" xmlns:xlink="http://www.w3.org/1999/xlink" width="512" height="512" x="0" y="0" viewBox="0 0 512 512" style="enable-background:new 0 0 512 512" xml:space="preserve" class=""><g><path d="M426.405 237.742V146.85a41.864 41.864 0 0 0-10.456-27.679l-45.89-52.07h-52.077l-13.179 14.954M281.615 108.364l-9.524 10.807a41.925 41.925 0 0 0-3.975 5.323" style="stroke-width:15;stroke-linecap:round;stroke-linejoin:round;stroke-miterlimit:10;" fill="none" stroke="#03A297" stroke-width="15" stroke-linecap="round" stroke-linejoin="round" stroke-miterlimit="10" data-original="#000000" class="" opacity="1"></path><path d="M305.551 185.217v-33.178a8 8 0 0 1 8-8h60.939a8 8 0 0 1 8 8v33.178h-76.939zM305.551 185.217h76.939v52.525h-76.939zM85.437 181v56.742h182.68V94c0-13.807-11.193-25-25-25h-132.68c-13.807 0-25 11.193-25 25v52" style="stroke-width:15;stroke-linecap:round;stroke-linejoin:round;stroke-miterlimit:10;" fill="none" stroke="#03A297" stroke-width="15" stroke-linecap="round" stroke-linejoin="round" stroke-miterlimit="10" data-original="#000000" class="" opacity="1"></path><circle cx="212.33" cy="130.962" r="16.025" style="stroke-width:15;stroke-linecap:round;stroke-linejoin:round;stroke-miterlimit:10;" fill="none" stroke="#03A297" stroke-width="15" stroke-linecap="round" stroke-linejoin="round" stroke-miterlimit="10" data-original="#000000" class="" opacity="1"></circle><circle cx="141.223" cy="130.962" r="16.025" style="stroke-width:15;stroke-linecap:round;stroke-linejoin:round;stroke-miterlimit:10;" fill="none" stroke="#03A297" stroke-width="15" stroke-linecap="round" stroke-linejoin="round" stroke-miterlimit="10" data-original="#000000" class="" opacity="1"></circle><circle cx="141.223" cy="192.116" r="16.025" style="stroke-width:15;stroke-linecap:round;stroke-linejoin:round;stroke-miterlimit:10;" fill="none" stroke="#03A297" stroke-width="15" stroke-linecap="round" stroke-linejoin="round" stroke-miterlimit="10" data-original="#000000" class="" opacity="1"></circle><circle cx="212.33" cy="192.116" r="16.025" style="stroke-width:15;stroke-linecap:round;stroke-linejoin:round;stroke-miterlimit:10;" fill="none" stroke="#03A297" stroke-width="15" stroke-linecap="round" stroke-linejoin="round" stroke-miterlimit="10" data-original="#000000" class="" opacity="1"></circle><path d="M353.233 504.5h90.891c5.523 0 10-4.477 10-10V319.171h0" style="stroke-width:15;stroke-linecap:round;stroke-linejoin:round;stroke-miterlimit:10;" fill="none" stroke="#03A297" stroke-width="15" stroke-linecap="round" stroke-linejoin="round" stroke-miterlimit="10" data-original="#000000" class="" opacity="1"></path><path d="M454.124 408H395a3 3 0 0 0-3 3v44a3 3 0 0 0 3 3h59.124v-50zM56.19 319.171h0V494.5c0 5.523 4.477 10 10 10h288.056V237.742" style="stroke-width:15;stroke-linecap:round;stroke-linejoin:round;stroke-miterlimit:10;" fill="none" stroke="#03A297" stroke-width="15" stroke-linecap="round" stroke-linejoin="round" stroke-miterlimit="10" data-original="#000000" class="" opacity="1"></path><path d="M122.693 410c8.601 33.668 39.131 58.562 75.478 58.562 43.023 0 77.901-34.877 77.901-77.901 0-32.019-19.324-59.514-46.94-71.49H167.21c-22.988 9.969-40.218 30.696-45.352 55.829" style="stroke-width:15;stroke-linecap:round;stroke-linejoin:round;stroke-miterlimit:10;" fill="none" stroke="#03A297" stroke-width="15" stroke-linecap="round" stroke-linejoin="round" stroke-miterlimit="10" data-original="#000000" class="" opacity="1"></path><path d="M236.738 375.304h-20.094a3.116 3.116 0 0 1-3.116-3.116v-20.094a3.116 3.116 0 0 0-3.116-3.116H185.93a3.116 3.116 0 0 0-3.116 3.116v20.094a3.116 3.116 0 0 1-3.116 3.116h-20.094a3.116 3.116 0 0 0-3.116 3.116v24.482a3.116 3.116 0 0 0 3.116 3.116h20.094a3.116 3.116 0 0 1 3.116 3.116v20.094a3.116 3.116 0 0 0 3.116 3.116h24.482a3.116 3.116 0 0 0 3.116-3.116v-20.094a3.116 3.116 0 0 1 3.116-3.116h20.094a3.116 3.116 0 0 0 3.116-3.116V378.42a3.116 3.116 0 0 0-3.116-3.116zM484.165 319.171h-85.66a10 10 0 0 1-9.067-5.782l-35.192-75.647h94.776a8 8 0 0 1 7.254 4.626l32.423 69.694c1.542 3.314-.878 7.109-4.534 7.109zM311.7 319.171H27.834c-3.615 0-6.035-3.718-4.572-7.023l30.82-69.643a8 8 0 0 1 7.316-4.762h292.848l-33.402 75.476a9.999 9.999 0 0 1-9.144 5.952zM305.551 61.682V18.336c0-5.985 4.852-10.836 10.836-10.836h55.266c5.985 0 10.836 4.852 10.836 10.836v43.346a5.418 5.418 0 0 1-5.418 5.418h-66.102a5.418 5.418 0 0 1-5.418-5.418z" style="stroke-width:15;stroke-linecap:round;stroke-linejoin:round;stroke-miterlimit:10;" fill="none" stroke="#03A297" stroke-width="15" stroke-linecap="round" stroke-linejoin="round" stroke-miterlimit="10" data-original="#000000" class="" opacity="1"></path></g></svg>