<svg xmlns="http://www.w3.org/2000/svg" version="1.1" xmlns:xlink="http://www.w3.org/1999/xlink" width="512" height="512" x="0" y="0" viewBox="0 0 682.667 682.667" style="enable-background:new 0 0 512 512" xml:space="preserve" class=""><g><defs><clipPath id="a" clipPathUnits="userSpaceOnUse"><path d="M0 512h512V0H0Z" fill="#03A297" opacity="1" data-original="#000000"></path></clipPath></defs><path d="m0 0 25.937-5.019" style="stroke-width:15;stroke-linecap:round;stroke-linejoin:round;stroke-miterlimit:10;stroke-dasharray:none;stroke-opacity:1" transform="matrix(1.33333 0 0 -1.33333 378.402 140.566)" fill="none" stroke="#03A297" stroke-width="15" stroke-linecap="round" stroke-linejoin="round" stroke-miterlimit="10" stroke-dasharray="none" stroke-opacity="" data-original="#000000" class="" opacity="1"></path><path d="m0 0-11.6-107.36" style="stroke-width:15;stroke-linecap:round;stroke-linejoin:round;stroke-miterlimit:10;stroke-dasharray:none;stroke-opacity:1" transform="matrix(1.33333 0 0 -1.33333 573.12 178.294)" fill="none" stroke="#03A297" stroke-width="15" stroke-linecap="round" stroke-linejoin="round" stroke-miterlimit="10" stroke-dasharray="none" stroke-opacity="" data-original="#000000" class="" opacity="1"></path><path d="m0 0-33.788 6.55" style="stroke-width:15;stroke-linecap:round;stroke-linejoin:round;stroke-miterlimit:10;stroke-dasharray:none;stroke-opacity:1" transform="matrix(1.33333 0 0 -1.33333 573.121 178.298)" fill="none" stroke="#03A297" stroke-width="15" stroke-linecap="round" stroke-linejoin="round" stroke-miterlimit="10" stroke-dasharray="none" stroke-opacity="" data-original="#000000" class="" opacity="1"></path><g clip-path="url(#a)" transform="matrix(1.33333 0 0 -1.33333 0 682.667)"><path d="M0 0v34.083h-33.307l-16.355-9.215" style="stroke-width:15;stroke-linecap:round;stroke-linejoin:round;stroke-miterlimit:10;stroke-dasharray:none;stroke-opacity:1" transform="translate(227.648 454.411)" fill="none" stroke="#03A297" stroke-width="15" stroke-linecap="round" stroke-linejoin="round" stroke-miterlimit="10" stroke-dasharray="none" stroke-opacity="" data-original="#000000" class="" opacity="1"></path><path d="m0 0 5.584 28.752c.567 2.893-1.36 5.756-4.252 6.295L-80.39 50.898c-2.891.567-5.726-1.361-6.293-4.253l-5.612-28.753" style="stroke-width:15;stroke-linecap:round;stroke-linejoin:round;stroke-miterlimit:10;stroke-dasharray:none;stroke-opacity:1" transform="translate(415.441 448.003)" fill="none" stroke="#03A297" stroke-width="15" stroke-linecap="round" stroke-linejoin="round" stroke-miterlimit="10" stroke-dasharray="none" stroke-opacity="" data-original="#000000" class="" opacity="1"></path><path d="M0 0h23.357C32.286 0 39.6-7.316 39.6-16.276v-16.248h-55.842v16.248C-16.242-7.316-8.929 0 0 0Z" style="stroke-width:15;stroke-linecap:round;stroke-linejoin:round;stroke-miterlimit:10;stroke-dasharray:none;stroke-opacity:1" transform="translate(215.969 454.411)" fill="none" stroke="#03A297" stroke-width="15" stroke-linecap="round" stroke-linejoin="round" stroke-miterlimit="10" stroke-dasharray="none" stroke-opacity="" data-original="#000000" class="" opacity="1"></path><path d="M0 0c6.43 17.57 24.91 24.2 43.2 20.19 11.9-2.02 67.55-12.68 77.58-14.72 10.09-1.84 65.68-12.76 77.5-15.34 19.42-3.26 34.699-17.55 32.29-37.85L214.95-180.6" style="stroke-width:15;stroke-linecap:round;stroke-linejoin:round;stroke-miterlimit:10;stroke-dasharray:none;stroke-opacity:1" transform="translate(248.54 451.52)" fill="none" stroke="#03A297" stroke-width="15" stroke-linecap="round" stroke-linejoin="round" stroke-miterlimit="10" stroke-dasharray="none" stroke-opacity="" data-original="#000000" class="" opacity="1"></path><path d="m0 0-9.638 19.508C32.201 48.091 24.689 68.535 48.67 80.274c23.925 11.91 35.547-6.522 83.679 9.301l13.946-28.27c10.034-20.331 8.702-42.392.226-61.305" style="stroke-width:15;stroke-linecap:round;stroke-linejoin:round;stroke-miterlimit:10;stroke-dasharray:none;stroke-opacity:1" transform="translate(82.288 270.922)" fill="none" stroke="#03A297" stroke-width="15" stroke-linecap="round" stroke-linejoin="round" stroke-miterlimit="10" stroke-dasharray="none" stroke-opacity="" data-original="#000000" class="" opacity="1"></path><path d="M0 0c19.048 20.501 18.595 36.749 37.615 46.078 24.35 12.108 31.407-9.216 80.39 6.861" style="stroke-width:15;stroke-linecap:round;stroke-linejoin:round;stroke-miterlimit:10;stroke-dasharray:none;stroke-opacity:1" transform="translate(114.036 270.922)" fill="none" stroke="#03A297" stroke-width="15" stroke-linecap="round" stroke-linejoin="round" stroke-miterlimit="10" stroke-dasharray="none" stroke-opacity="" data-original="#000000" class="" opacity="1"></path><path d="M0 0c-2.806 3.885-5.386 8.167-7.682 12.845-12.586 25.492 16.498 39.84 29.083 14.348l3.743-7.599" style="stroke-width:15;stroke-linecap:round;stroke-linejoin:round;stroke-miterlimit:10;stroke-dasharray:none;stroke-opacity:1" transform="translate(47.507 270.837)" fill="none" stroke="#03A297" stroke-width="15" stroke-linecap="round" stroke-linejoin="round" stroke-miterlimit="10" stroke-dasharray="none" stroke-opacity="" data-original="#000000" class="" opacity="1"></path><path d="M0 0c13.663 32.184 27.581 68.989 8.107 108.46-12.784 25.946-42.378 11.342-29.593-14.603l3.827-7.741" style="stroke-width:15;stroke-linecap:round;stroke-linejoin:round;stroke-miterlimit:10;stroke-dasharray:none;stroke-opacity:1" transform="translate(230.964 276.281)" fill="none" stroke="#03A297" stroke-width="15" stroke-linecap="round" stroke-linejoin="round" stroke-miterlimit="10" stroke-dasharray="none" stroke-opacity="" data-original="#000000" class="" opacity="1"></path><path d="m0 0-36.14-150.68" style="stroke-width:15;stroke-linecap:round;stroke-linejoin:round;stroke-miterlimit:10;stroke-dasharray:none;stroke-opacity:1" transform="translate(368.22 457.22)" fill="none" stroke="#03A297" stroke-width="15" stroke-linecap="round" stroke-linejoin="round" stroke-miterlimit="10" stroke-dasharray="none" stroke-opacity="" data-original="#000000" class="" opacity="1"></path><path d="M0 0v57.42c0 5.927 4.847 10.747 10.743 10.747h84.302c5.895 0 10.743-4.82 10.743-10.747V-82.798" style="stroke-width:15;stroke-linecap:round;stroke-linejoin:round;stroke-miterlimit:10;stroke-dasharray:none;stroke-opacity:1" transform="translate(174.754 353.72)" fill="none" stroke="#03A297" stroke-width="15" stroke-linecap="round" stroke-linejoin="round" stroke-miterlimit="10" stroke-dasharray="none" stroke-opacity="" data-original="#000000" class="" opacity="1"></path><path d="M0 0h-207.467c-2.579 0-5.725-2.07-7.029-4.65l-33.449-65.615c-1.276-2.552-.255-4.651 2.296-4.651h202.846c2.551 0 5.698 2.099 7.001 4.651z" style="stroke-width:15;stroke-linecap:round;stroke-linejoin:round;stroke-miterlimit:10;stroke-dasharray:none;stroke-opacity:1" transform="translate(255.994 270.922)" fill="none" stroke="#03A297" stroke-width="15" stroke-linecap="round" stroke-linejoin="round" stroke-miterlimit="10" stroke-dasharray="none" stroke-opacity="" data-original="#000000" class="" opacity="1"></path><path d="m0 0-74.04-.028c-2.552 0-5.727 2.098-7.03 4.65l-35.801 70.265H90.623c2.551 0 5.697-2.07 7.002-4.65l33.448-65.615c1.304-2.552.255-4.65-2.296-4.65L34.64 0" style="stroke-width:15;stroke-linecap:round;stroke-linejoin:round;stroke-miterlimit:10;stroke-dasharray:none;stroke-opacity:1" transform="translate(372.865 196.035)" fill="none" stroke="#03A297" stroke-width="15" stroke-linecap="round" stroke-linejoin="round" stroke-miterlimit="10" stroke-dasharray="none" stroke-opacity="" data-original="#000000" class="" opacity="1"></path><path d="M0 0v89.122m452.633 0V-89.15c0-2.58-2.126-4.735-4.735-4.735H4.733C2.126-93.885 0-91.73 0-89.15v54.5" style="stroke-width:15;stroke-linecap:round;stroke-linejoin:round;stroke-miterlimit:10;stroke-dasharray:none;stroke-opacity:1" transform="translate(29.678 106.885)" fill="none" stroke="#03A297" stroke-width="15" stroke-linecap="round" stroke-linejoin="round" stroke-miterlimit="10" stroke-dasharray="none" stroke-opacity="" data-original="#000000" class="" opacity="1"></path><path d="M0 0v-257.922" style="stroke-width:15;stroke-linecap:round;stroke-linejoin:round;stroke-miterlimit:10;stroke-dasharray:none;stroke-opacity:1" transform="translate(255.994 270.922)" fill="none" stroke="#03A297" stroke-width="15" stroke-linecap="round" stroke-linejoin="round" stroke-miterlimit="10" stroke-dasharray="none" stroke-opacity="" data-original="#000000" class="" opacity="1"></path></g></g></svg>