<svg xmlns="http://www.w3.org/2000/svg" version="1.1" xmlns:xlink="http://www.w3.org/1999/xlink" width="512" height="512" x="0" y="0" viewBox="0 0 512 512" style="enable-background:new 0 0 512 512" xml:space="preserve" class=""><g><path d="M303.094 174.25a7.498 7.498 0 0 0 10.445-1.84l15.953-22.789a7.495 7.495 0 0 0-1.84-10.445 7.5 7.5 0 0 0-10.445 1.844l-15.957 22.785a7.5 7.5 0 0 0 1.844 10.445zM341.672 155.984l-5.418 27.286a7.502 7.502 0 0 0 14.715 2.921l5.414-27.289a7.497 7.497 0 0 0-5.895-8.816 7.5 7.5 0 0 0-8.816 5.898zM309.59 121.45a7.493 7.493 0 0 0-10.3-2.524l-23.79 14.422c-3.543 2.144-4.672 6.757-2.527 10.3a7.502 7.502 0 0 0 10.304 2.524l23.79-14.422c3.542-2.145 4.671-6.758 2.523-10.3zM83.652 152.18a10.2 10.2 0 0 0 8.97 0c7-3.453 29.835-16.508 29.835-39.465 0-18.203-21.215-27.063-34.312-16.074-13.079-11.008-34.325-2.11-34.325 16.074 0 23.015 22.844 36.031 29.832 39.465zm-3.777-42.368c1.398 2.47 4.469 4.626 8.023 4.711 3.567.114 6.97-2.039 8.461-4.652 3.051-5.348 11.098-3.148 11.098 2.848 0 12.687-13.387 21.562-19.324 24.875-5.93-3.297-19.313-12.145-19.313-24.875 0-6.043 8.086-8.133 11.055-2.906zM141.14 103.617h29.637c4.145 0 7.5-3.355 7.5-7.5a7.5 7.5 0 0 0-7.5-7.5h-29.636a7.5 7.5 0 0 0-7.5 7.5c0 4.145 3.355 7.5 7.5 7.5zM141.14 130.027h29.637c4.145 0 7.5-3.355 7.5-7.5 0-4.144-3.355-7.5-7.5-7.5h-29.636a7.497 7.497 0 0 0-7.5 7.5 7.5 7.5 0 0 0 7.5 7.5zM141.14 156.438h29.637c4.145 0 7.5-3.356 7.5-7.5s-3.355-7.5-7.5-7.5h-29.636c-4.145 0-7.5 3.355-7.5 7.5s3.355 7.5 7.5 7.5zM495.77 15.008c4.144 0 7.5-3.356 7.5-7.5 0-4.145-3.356-7.5-7.5-7.5h-73.711c-.118 0-.23.012-.348.015a7.488 7.488 0 0 0-6.54 3.184l-25.89 36.973-32.84-22.996C339.071 5.02 317.54.894 296.848 5.644l-2.598-1.82c-9.59-6.71-22.816-4.347-29.5 5.2l-5.969 8.523c-6.695 9.562-4.363 22.8 5.203 29.496l2.047 1.434c-6.843 30.554 26.828 54.109 53.18 37.238l4.191 2.933c-6.847 30.555 26.817 54.11 53.176 37.239l4.192 2.933c-6.844 30.551 26.82 54.11 53.18 37.239l2.054 1.437c9.566 6.7 22.797 4.363 29.496-5.203l5.969-8.523c6.695-9.563 4.363-22.797-5.203-29.497l-3.27-2.289c-2.613-21.066-13.855-39.89-31.23-52.054L401.57 48.785l23.653-33.777zM280.312 58.48l24.622 17.243a20.04 20.04 0 0 1-24.622-17.243zm57.368 40.168c15.11 10.579 9.52 6.668 24.625 17.243a20.04 20.04 0 0 1-24.625-17.243zm57.37 40.172c14.954 10.47 9.727 6.813 24.626 17.243a20.04 20.04 0 0 1-24.625-17.243zm64.13 6.344-5.97 8.524a6.188 6.188 0 0 1-8.605 1.519c-9.492-6.648-162.52-113.8-172.02-120.45-2.769-1.94-3.456-5.831-1.515-8.605l5.97-8.523c1.944-2.777 5.839-3.453 8.605-1.516l172.02 120.446c2.773 1.941 3.456 5.836 1.515 8.605zm-14.903-36.289c-7.894-5.531-125.047-87.559-128.71-90.125 11.472.352 22.671 4 32.273 10.723l75.324 52.742a59.356 59.356 0 0 1 21.113 26.66zm0 0" fill="#03A297" opacity="1" data-original="#000000" class=""></path><path d="M490.82 310.516h-32.312a24.2 24.2 0 0 0 1.851-9.293c0-13.391-10.898-24.285-24.289-24.285h-43.113c-2.305-6.786-8.719-11.688-16.273-11.688H213.828a2.36 2.36 0 0 1-.52-.063l-34.828-8.496c-6.816-1.66-14.062.914-18.238 6.989l-20.387-4.973c-10.437-2.543-20.976 2.113-26.375 10.773h-3.14c7.586-8.93 12.176-20.48 12.176-33.09 0-9.335-2.524-18.09-6.907-25.632h91.258c16.317 0 29.594-13.278 29.594-29.594v-41.137a7.5 7.5 0 0 0-7.5-7.5 7.497 7.497 0 0 0-7.5 7.5v41.137c0 8.047-6.547 14.594-14.594 14.594H102.445c-18.312-14.059-43.886-14.07-62.234 0H29.59c-8.043 0-14.59-6.547-14.59-14.594V63.891c0-8.047 6.547-14.594 14.59-14.594H206.87c8.043 0 14.59 6.547 14.59 14.594v41.136a7.502 7.502 0 0 0 15.004 0V63.891c0-16.317-13.277-29.594-29.594-29.594H29.59C13.273 34.297 0 47.57 0 63.89v117.277c0 15.48 11.953 28.215 27.11 29.48a50.864 50.864 0 0 0-6.973 25.743c0 12.609 4.593 24.16 12.18 33.09H21.18C9.5 269.48 0 278.98 0 290.66v13.679c0 5.215 1.902 9.984 5.04 13.68C1.901 321.71 0 326.484 0 331.695v13.68c0 11.328 8.945 20.578 20.137 21.129v6.61c0 11.679 9.504 21.179 21.18 21.179H62.03v95.14c0 7.88 6.41 14.29 14.293 14.29h14.153c7.878 0 14.293-6.41 14.293-14.29v-95.14h52.445v61.297c0 9.48 7.71 17.191 17.191 17.191h86.567c4.14 0 7.5-3.355 7.5-7.5s-3.36-7.5-7.5-7.5h-86.567a2.196 2.196 0 0 1-2.191-2.191V273.434a.958.958 0 0 0 .008-.106 2.18 2.18 0 0 1 2.703-2.062l34.828 8.496c1.332.324 2.703.488 4.074.488h162.856c1.21 0 2.191.98 2.191 2.191V455.59c0 1.207-.98 2.191-2.191 2.191h-80.711a7.5 7.5 0 1 0 0 15h80.71c9.481 0 17.192-7.71 17.192-17.191v-61.297h13.355v95.137c0 7.882 6.41 14.293 14.293 14.293h14.153c7.883 0 14.293-6.41 14.293-14.293v-95.137h20.71c11.68 0 21.18-9.5 21.18-21.18V366.5c11.196-.547 20.141-9.797 20.141-21.125v-13.68c0-11.675-9.5-21.18-21.18-21.18zM136.305 273.28l20.91 5.102v19.12l-8.867-2.163-16.442-4.008c-4.36-1.062-7.242-5.055-7.086-9.363.211-5.778 5.7-10.094 11.485-8.688zm-64.977-.703c-19.82 0-36.191-16.129-36.191-36.187 0-18.766 14.36-34.27 32.773-36.024 21.274-2.004 39.606 14.778 39.606 36.024 0 20.117-16.426 36.187-36.188 36.187zM15 290.66a6.188 6.188 0 0 1 6.18-6.18H53.78c11.254 4.122 23.824 4.125 35.094 0h21.031c.918 10.31 8.39 18.973 18.442 21.422l9.37 2.286a6.173 6.173 0 0 1-4.827 2.328H21.18c-3.407 0-6.18-2.77-6.18-6.176zm0 54.715v-13.68c0-3.406 2.773-6.175 6.18-6.175h136.035v26.035H21.18a6.188 6.188 0 0 1-6.18-6.18zm74.766 143.348H77.03v-94.43h12.735zm-48.45-109.43a6.188 6.188 0 0 1-6.18-6.18v-6.558h122.079v12.738H41.316zm404.04-78.07c0 5.125-4.165 9.289-9.286 9.289h-42.195v-18.574h42.195c5.121 0 9.285 4.164 9.285 9.285zm-10.387 187.5H422.23v-94.43h12.739zm41.89-115.61c0 3.407-2.77 6.18-6.18 6.18h-76.804v-12.738h82.984zM497 345.375a6.188 6.188 0 0 1-6.18 6.18h-96.945V325.52h96.945c3.407 0 6.18 2.77 6.18 6.18zm0 0" fill="#03A297" opacity="1" data-original="#000000" class=""></path><path d="M34.773 61.57a7.5 7.5 0 0 0-7.5 7.5v106.914c0 4.145 3.356 7.5 7.5 7.5h166.915c4.144 0 7.5-3.355 7.5-7.5V69.07a7.5 7.5 0 0 0-7.5-7.5zm159.415 106.914H42.273V76.57h151.915zm0 0" fill="#03A297" opacity="1" data-original="#000000" class=""></path></g></svg>