<svg xmlns="http://www.w3.org/2000/svg" version="1.1" xmlns:xlink="http://www.w3.org/1999/xlink" width="512" height="512" x="0" y="0" viewBox="0 0 512.001 512" style="enable-background:new 0 0 512 512" xml:space="preserve" class=""><g><path d="M12.5 112.168h34.547v34.371c0 6.895 5.605 12.5 12.5 12.5h40.488c6.895 0 12.5-5.605 12.5-12.5v-34.371h34.547c6.895 0 12.5-5.606 12.5-12.5V59.371c0-6.894-5.605-12.5-12.5-12.5h-34.547V12.5c0-6.89-5.605-12.5-12.5-12.5H59.547c-6.895 0-12.5 5.61-12.5 12.5v34.371H12.5c-6.895 0-12.5 5.606-12.5 12.5v40.297c0 6.894 5.605 12.5 12.5 12.5zM15 61.871h34.547c6.89 0 12.5-5.605 12.5-12.5V15h35.488v34.371c0 6.895 5.606 12.5 12.5 12.5h34.547v35.297h-34.547c-6.894 0-12.5 5.61-12.5 12.5v34.371H62.047v-34.371c0-6.89-5.61-12.5-12.5-12.5H15zM268.375 112.523c-4.14 0-7.5 3.36-7.5 7.5v18.395a7.5 7.5 0 1 0 15 0v-18.395a7.5 7.5 0 0 0-7.5-7.5zm0 0" fill="#03A297" opacity="1" data-original="#000000" class=""></path><path d="M415.203 324.973c-35.074 0-63.61 28.742-63.61 64.07 0 9.816 2.196 19.355 6.41 28.043-.472.21-.94.434-1.401.66h-41.864v-86.371a7.5 7.5 0 0 0-7.5-7.5 7.497 7.497 0 0 0-7.5 7.5v130.488h-85.035c.274-18.812 15.512-34.027 34.2-34.027h14c4.14 0 7.5-3.36 7.5-7.5V220.707h19.66c20.855 0 39.726-8.687 53.265-22.64l14.074 58.53a7.498 7.498 0 0 0 7.285 5.75c.583 0 1.168-.066 1.758-.21a7.496 7.496 0 0 0 5.54-9.043l-1.813-7.543a186.326 186.326 0 0 1 18.047 13.176 7.478 7.478 0 0 0 4.77 1.714 7.5 7.5 0 0 0 4.777-13.285c-13.88-11.449-25.891-18.383-32.446-21.773l-10.332-42.969a74.996 74.996 0 0 0 9.59-36.77 75.078 75.078 0 0 0-5.703-28.757c8.941-23.23 3.621-49.63-14.219-67.621-9.136-9.207-20.683-15.29-33.394-17.582a7.5 7.5 0 0 0-6.88 2.332 62.982 62.982 0 0 0-9.343 13.437c-8.824-8.195-19.664-13.633-31.52-15.77a7.503 7.503 0 0 0-6.878 2.333c-14.028 15.414-19.098 35.898-15.383 54.988-9.883 8.652-17.492 19.875-21.785 32.625h-8.332c-2.871 0-5.676.262-8.41.738-3.606-2.863-8.149-4.59-13.094-4.59h-14.332c-11.68 0-21.184 9.555-21.184 21.297 0 7.555 3.95 14.188 9.867 17.969a49.756 49.756 0 0 0-2.047 14.125c0 27.316 22.07 49.539 49.196 49.539h44.265v192.129h-6.5c-26.957 0-48.91 21.945-49.187 49.023h-8.844v-.062c0-6.781-5.426-12.317-12.164-12.496v-46.36a7.5 7.5 0 1 0-15 0v48.856c0 6.781 5.426 12.316 12.164 12.496v6.602h-22.824v-64.313c0-4.14-3.36-7.5-7.5-7.5s-7.5 3.36-7.5 7.5v55.277h-1.457v-.062c0-6.45-4.91-11.774-11.188-12.43v-42.785c0-4.145-3.359-7.5-7.5-7.5s-7.5 3.355-7.5 7.5v45.215c0 6.45 4.91 11.773 11.192 12.43v6.664H99.742v-64.309c0-4.145-3.355-7.5-7.5-7.5a7.5 7.5 0 0 0-7.5 7.5v55.277H55.074c1.403-54.718 18-90.168 31.797-110.367a141.434 141.434 0 0 1 8.531-11.254c12.141 9.524 27.996 15.317 45.332 15.317 8.051 0 15.782-1.258 22.97-3.547v14.933a7.5 7.5 0 0 0 7.5 7.5c4.144 0 7.5-3.355 7.5-7.5v-21.656c18.71-11.12 31.085-30.2 31.085-51.832 0-3.348-.305-6.629-.875-9.832a50.647 50.647 0 0 0 11.488-48.93 10.632 10.632 0 0 0-7.164-7.156 50.763 50.763 0 0 0-14.406-2.09c-11.469 0-22.352 3.805-31.227 10.797-8.265-3.152-17.347-4.894-26.87-4.894s-18.606 1.742-26.868 4.894c-8.879-6.992-19.758-10.797-31.23-10.797-4.871 0-9.719.703-14.395 2.086a10.703 10.703 0 0 0-4.508 2.684 10.694 10.694 0 0 0-2.668 4.488 50.642 50.642 0 0 0 11.489 48.918 56.383 56.383 0 0 0-.871 9.828c0 13.52 4.84 26.028 13.023 36.235a155.062 155.062 0 0 0-10.223 13.347c-7.68 11.242-16.152 26.82-22.78 47.223-.56-19.11 4.487-38.414 15.269-55.258 5.164-8.066 2.804-18.832-5.258-23.996a17.315 17.315 0 0 0-9.36-2.746 17.294 17.294 0 0 0-14.636 8.008c-28.637 44.734-27.477 102.226 2.195 145.593H7.5a7.5 7.5 0 1 0 0 15h77.742c1.508 5.211 6.313 9.036 12 9.036h26.848c5.691 0 10.496-3.825 12-9.036h2.457c1.508 5.211 6.312 9.036 12 9.036h27.824c5.688 0 10.492-3.825 12-9.036h205.621a7.5 7.5 0 1 0 0-15h-52.281c.238-15.949 11.512-29.882 26.988-33.246a7.5 7.5 0 0 0 5.38-4.57 7.498 7.498 0 0 0-.798-7.016c-5.683-8.246-8.691-17.921-8.691-27.984 0-27.059 21.808-49.07 48.613-49.07 4.14 0 7.5-3.36 7.5-7.5s-3.36-7.496-7.5-7.496zm-150.2-277.59c8.028 2.199 15.313 6.449 21.263 12.445a50.283 50.283 0 0 1 3.07 3.41 64.828 64.828 0 0 0-1.164 7.387 73.56 73.56 0 0 0-33.024 8.762c-.59-11.207 2.672-22.586 9.856-32.004zm-89.698 97.988c-3.41 0-6.184-2.824-6.184-6.297 0-3.469 2.774-6.293 6.184-6.293h14.332c3.41 0 6.183 2.824 6.183 6.293 0 3.473-2.773 6.297-6.183 6.297zm35.832 60.336c-18.86 0-34.2-15.492-34.2-34.539 0-3.773.626-7.398 1.739-10.797h10.96c11.68 0 21.18-9.555 21.18-21.297 0-.824-.054-1.633-.148-2.43.156-.003.312-.015.469-.015h4.957a75.502 75.502 0 0 0-.543 9.016c0 24.535 11.75 46.359 29.875 60.066h-34.29zm19.414-60.062c0-32.583 25.84-59.168 57.918-60.028a63.345 63.345 0 0 0 9.238 25.285 7.5 7.5 0 0 0 12.672-8.027c-10.926-17.242-9.813-39.477 2.371-55.492 8.027 2.199 15.309 6.453 21.254 12.445 14.95 15.07 18.398 37.871 8.594 56.738-1.914 3.672-.48 8.204 3.195 10.114.273.14.55.265.832.37a60.091 60.091 0 0 1 2.953 18.595c0 33.12-26.7 60.062-59.515 60.062-32.813 0-59.512-26.941-59.512-60.062zm-31.719 94.804c2.625 0 5.238.29 7.8.863a35.626 35.626 0 0 1-3.69 25.196c-4.712-8.758-11.649-16.367-20.141-22.25a35.382 35.382 0 0 1 16.031-3.809zm-58.098 5.903c29.805 0 54.055 21.128 54.055 47.101s-24.25 47.106-54.055 47.106-54.054-21.133-54.054-47.106c.004-25.973 24.25-47.101 54.054-47.101zm-62.207 20.156a35.63 35.63 0 0 1-3.687-25.196 35.647 35.647 0 0 1 7.797-.863c5.664 0 11.12 1.32 16.031 3.805-8.488 5.887-15.43 13.496-20.14 22.254zm-36.52 168.445c-15.694-35.328-13.152-77.02 8.345-110.601a2.36 2.36 0 0 1 2.003-1.094c.454 0 .88.125 1.266.375a2.37 2.37 0 0 1 .719 3.277c-19.121 29.88-22.617 66.445-11.024 98.63a257.006 257.006 0 0 0-1.308 9.413zm286.704 26.91h-13.977v-29.117h23.84c-6.125 8.227-9.75 18.356-9.863 29.117zm0 0" fill="#03A297" opacity="1" data-original="#000000" class=""></path><path d="M121.984 293.445a7.5 7.5 0 0 0 7.5-7.5v-8.535c0-4.144-3.359-7.5-7.5-7.5s-7.5 3.356-7.5 7.5v8.535a7.5 7.5 0 0 0 7.5 7.5zM159.488 293.445a7.5 7.5 0 0 0 7.5-7.5v-8.535a7.5 7.5 0 0 0-7.5-7.5 7.497 7.497 0 0 0-7.5 7.5v8.535c0 4.145 3.356 7.5 7.5 7.5zM129.715 326.465c4 0 7.812-1.188 11.02-3.309a19.963 19.963 0 0 0 11.023 3.309c11.012 0 19.969-8.957 19.969-19.969a7.5 7.5 0 0 0-7.5-7.5 7.497 7.497 0 0 0-7.5 7.5 4.976 4.976 0 0 1-4.97 4.969 4.965 4.965 0 0 1-4.394-2.652 7.498 7.498 0 0 0-13.254 0 4.965 4.965 0 0 1-4.394 2.652 4.974 4.974 0 0 1-4.969-4.969 7.5 7.5 0 0 0-7.5-7.5 7.497 7.497 0 0 0-7.5 7.5c0 11.012 8.957 19.969 19.969 19.969zM504.488 461.863H476.77v-40.277c19.167-13.34 30.886-34.027 34.242-60.922 3.11-24.93-2.055-46.066-2.653-48.398-1.367-5.29-6.125-8.985-11.57-8.985-.418 0-.848.024-1.387.082-5.886.688-10.43 5.688-10.562 11.63-.383 16.519-8.176 30.015-17.211 40.183-8.55-30.684-23.078-58.149-43.512-82.098a7.504 7.504 0 0 0-10.574-.836 7.504 7.504 0 0 0-.836 10.574c31.098 36.446 47.555 81.813 48.965 134.93l.098 15v29.117h-29.778c-4.14 0-7.5 3.36-7.5 7.5s3.36 7.5 7.5 7.5h72.496a7.5 7.5 0 0 0 7.5-7.5c0-4.144-3.355-7.5-7.5-7.5zm-32.758-89.515c9.856-9.215 19.907-21.805 24.899-37.672.52 6.945.601 15.297-.5 24.133-2.285 18.32-9.176 33.136-20.234 43.957-.817-10.438-2.204-20.579-4.165-30.418zm0 0" fill="#03A297" opacity="1" data-original="#000000" class=""></path></g></svg>