<svg xmlns="http://www.w3.org/2000/svg" version="1.1" xmlns:xlink="http://www.w3.org/1999/xlink" width="512" height="512" x="0" y="0" viewBox="0 0 512 512" style="enable-background:new 0 0 512 512" xml:space="preserve" class=""><g><path d="M96.324 346.374a7 7 0 0 1 7-7h169.234a7 7 0 1 1 0 14H103.324a7 7 0 0 1-7-7zm7-44.896h123.63a7 7 0 1 0 0-14h-123.63a7 7 0 1 0 0 14zm286.521 102.247v83.06c0 8.942-7.274 16.216-16.216 16.216H262.061c-8.942 0-16.216-7.274-16.216-16.216v-50.72c-18.574 4.315-38.007 6.505-57.904 6.505-8.248 0-16.538-.386-24.682-1.148l-86.458 60.321a6.994 6.994 0 0 1-7.928.056 7.001 7.001 0 0 1-2.896-7.38l17.357-74.772C36.67 396.755 9 359.985 9 320.426c0-27.13 12.64-52.774 36.553-74.159 22.878-20.459 54.01-35.223 90.031-42.695a7 7 0 0 1 2.844 13.708c-33.13 6.872-62.8 20.873-83.542 39.422C34.026 275.357 23 297.392 23 320.426c0 35.363 26.665 68.609 71.329 88.932a6.998 6.998 0 0 1 3.919 7.954l-14.513 62.521 73.634-51.374a7.013 7.013 0 0 1 4.729-1.222 251.076 251.076 0 0 0 25.843 1.331c19.968 0 39.417-2.326 57.904-6.904v-17.94c0-8.942 7.274-16.216 16.216-16.216h55.024c23.103-19.084 35.797-42.826 35.797-67.083 0-25.918-14.361-51.044-40.438-70.749a7 7 0 1 1 8.44-11.169c29.662 22.414 45.998 51.506 45.998 81.918 0 23.994-10.265 47.31-29.231 67.083h35.977c8.942 0 16.217 7.275 16.217 16.217zm-14 0c0-1.201-1.015-2.216-2.216-2.216H262.061c-1.201 0-2.216 1.015-2.216 2.216v83.06c0 1.201 1.015 2.216 2.216 2.216h111.568c1.201 0 2.216-1.015 2.216-2.216zm-31.028 41.529a6.999 6.999 0 0 1-3.5 6.062l-39.944 23.061a7 7 0 0 1-10.5-6.062v-46.123a6.999 6.999 0 0 1 10.5-6.062l39.944 23.062a7 7 0 0 1 3.5 6.062zm-21 0-18.944-10.937v21.874zM457.315 82.163a6.965 6.965 0 0 0 3.494-.939l27.035-15.608a7 7 0 1 0-7-12.124L453.809 69.1a7 7 0 0 0 3.506 13.063zm-45.061-31.582a6.995 6.995 0 0 0 9.562-2.562l16.465-28.518a7 7 0 1 0-12.124-7l-16.465 28.518a7 7 0 0 0 2.562 9.562zm43.816 75.89a7 7 0 0 0 7 7H496a7 7 0 1 0 0-14h-32.93a7 7 0 0 0-7 7zm-296.565 76.822c3.722-13.893 12.589-25.479 24.969-32.626l36.614-21.139a6.995 6.995 0 0 1 5.312-.7 7.02 7.02 0 0 1 1.977.88c37.628-28.161 67.298-60.763 84.295-92.673l-.644-1.115c-7.932-13.738-3.208-31.368 10.53-39.301 13.74-7.931 31.369-3.207 39.301 10.53l28.564 49.474c15.172-7.849 34.051-2.432 42.679 12.514 8.628 14.945 3.88 34-10.502 43.218l28.564 49.474c3.831 6.635 4.842 14.385 2.849 21.825-1.994 7.439-6.745 13.646-13.38 17.477a28.504 28.504 0 0 1-14.293 3.848c-2.51 0-5.038-.331-7.531-.999-7.439-1.993-13.646-6.745-17.476-13.379l-.644-1.115c-35.816-1.226-78.456 7.995-121.281 26.184l50.542 68.032c5.044 6.79 4.159 16.165-2.059 21.807l-11.119 10.09a16.352 16.352 0 0 1-12.524 4.158 16.113 16.113 0 0 1-11.344-6.377l-52.876-70.754-1.845 1.065c-8.228 4.75-17.379 7.177-26.67 7.177a54.34 54.34 0 0 1-14.07-1.866c-13.893-3.722-25.479-12.59-32.626-24.969-7.148-12.38-9.034-26.848-5.312-40.74zM318.711 312.05l-49.315-66.381-17.159 9.907L304.119 325a2.038 2.038 0 0 0 1.474.822c.379.036 1.11.008 1.771-.592l11.118-10.089c.874-.793.971-2.093.229-3.091zm78.731-223.269 18.139 31.417c7.7-5.337 10.164-15.804 5.397-24.061-4.767-8.256-15.064-11.356-23.536-7.356zm-73.29-39.861 89.304 154.68c1.961 3.396 5.148 5.831 8.976 6.856 3.827 1.024 7.804.511 11.201-1.45 3.396-1.96 5.831-5.148 6.857-8.975 1.025-3.827.51-7.805-1.45-11.201L349.735 34.15c-2.732-4.733-7.708-7.382-12.816-7.382-2.504 0-5.04.636-7.36 1.976-3.396 1.96-5.831 5.148-6.856 8.975s-.511 7.805 1.449 11.201zm-88.098 112.529 35.9 62.182c41.986-18.088 84.104-27.923 120.598-28.238L320.808 71.126c-18.519 31.447-48.096 63.006-84.754 90.323zm-59.114 75.583c5.277 9.141 13.845 15.692 24.125 18.446 10.279 2.755 20.975 1.365 30.116-3.912l30.552-17.639-39.708-68.776-30.552 17.639c-9.141 5.277-15.691 13.845-18.446 24.125s-1.364 20.977 3.913 30.117zM47.403 89.922c0-23.444 19.073-42.518 42.518-42.518s42.518 19.073 42.518 42.518c0 23.444-19.073 42.517-42.518 42.517s-42.518-19.073-42.518-42.517zm14 0c0 15.725 12.793 28.517 28.518 28.517s28.518-12.792 28.518-28.517-12.793-28.518-28.518-28.518-28.518 12.793-28.518 28.518zM9 97.314V82.53c0-6.538 5.318-11.856 11.855-11.856 5.79 0 8.074-4.426 8.635-5.783.562-1.357 2.078-6.102-2.017-10.196A11.775 11.775 0 0 1 24 46.312c0-3.167 1.233-6.145 3.473-8.384l10.453-10.454c4.622-4.623 12.144-4.623 16.767 0 4.095 4.095 8.84 2.579 10.196 2.017 1.357-.562 5.783-2.845 5.783-8.635C70.672 14.318 75.99 9 82.527 9h14.784c6.537 0 11.855 5.318 11.855 11.856 0 5.79 4.426 8.073 5.783 8.635 1.356.562 6.103 2.076 10.196-2.017 4.623-4.623 12.144-4.623 16.767 0l10.454 10.454c2.239 2.239 3.472 5.216 3.472 8.383s-1.233 6.145-3.473 8.384c-4.094 4.094-2.578 8.839-2.016 10.196.562 1.356 2.845 5.783 8.635 5.783 6.537 0 11.855 5.318 11.855 11.856v14.784c0 6.537-5.318 11.855-11.855 11.855-5.79 0-8.074 4.426-8.635 5.783-.562 1.356-2.078 6.102 2.017 10.196 4.623 4.623 4.623 12.145 0 16.767l-10.454 10.454c-2.238 2.239-5.216 3.473-8.383 3.473s-6.145-1.233-8.384-3.473c-4.094-4.093-8.838-2.579-10.196-2.016-1.356.562-5.783 2.845-5.783 8.636 0 6.537-5.318 11.855-11.855 11.855H82.529c-6.537 0-11.855-5.318-11.855-11.855 0-5.803-4.423-8.086-5.778-8.647-1.357-.562-6.098-2.076-10.201 2.028-2.238 2.239-5.216 3.473-8.383 3.473s-6.146-1.233-8.384-3.473l-10.453-10.453a11.777 11.777 0 0 1-3.473-8.384c0-3.167 1.233-6.145 3.473-8.384 4.094-4.094 2.578-8.839 2.016-10.195-.562-1.357-2.845-5.783-8.635-5.783C14.318 109.169 9 103.851 9 97.314zm14-2.052c8.691.757 16.017 6.103 19.425 14.333 3.409 8.23 2.009 17.191-3.602 23.872l7.553 7.553c6.686-5.617 15.649-7.02 23.876-3.613 8.228 3.408 13.572 10.738 14.328 19.438h10.68c.757-8.691 6.103-16.017 14.333-19.426 8.229-3.407 17.19-2.009 23.872 3.601l7.553-7.553c-5.611-6.681-7.01-15.642-3.602-23.872 3.409-8.229 10.734-13.576 19.425-14.333v-10.68c-8.691-.757-16.017-6.103-19.425-14.333s-2.009-17.19 3.601-23.872l-7.553-7.553c-6.683 5.61-15.643 7.009-23.872 3.601C101.363 39.016 96.017 31.691 95.26 23H84.58c-.757 8.691-6.103 16.017-14.332 19.425-8.23 3.409-17.191 2.009-23.872-3.602l-7.553 7.553c5.61 6.683 7.01 15.643 3.601 23.872C39.017 78.479 31.691 83.825 23 84.582zm479.45 186.11c-2.471 20.728-12.438 40.447-18.16 50.356s-17.814 28.4-34.529 40.904c-10.837 8.107-21.75 12.185-32.324 12.185-7.384 0-14.604-1.988-21.519-5.981l-2.514-1.452c-4.142-2.391-7.105-6.258-8.347-10.891-1.241-4.632-.608-9.463 1.783-13.604l10.051-17.409c4.943-8.563 15.932-11.507 24.495-6.564l5.896 3.404c1.671.966 3.649.639 4.923-.812 5.497-6.268 10.56-13.388 15.049-21.163s8.124-15.721 10.803-23.614c.62-1.828-.086-3.705-1.757-4.67l-5.896-3.403c-4.142-2.391-7.105-6.259-8.347-10.891-1.241-4.632-.608-9.464 1.783-13.605l10.051-17.409c4.942-8.562 15.931-11.506 24.495-6.564l2.515 1.452c16.819 9.71 24.27 26.906 21.549 49.731zm-28.549-37.607-2.514-1.452a3.937 3.937 0 0 0-5.371 1.439l-10.051 17.409a3.899 3.899 0 0 0-.384 2.981 3.9 3.9 0 0 0 1.824 2.39l5.896 3.403c7.503 4.333 10.799 13.089 8.014 21.294-2.973 8.76-6.989 17.546-11.936 26.115-4.946 8.567-10.548 16.438-16.648 23.395-5.714 6.516-14.944 8.038-22.448 3.706l-5.896-3.403a3.937 3.937 0 0 0-5.372 1.439l-10.051 17.409a3.899 3.899 0 0 0-.384 2.981 3.9 3.9 0 0 0 1.824 2.39l2.514 1.452c11.921 6.882 24.5 5.151 38.457-5.291 15.262-11.417 26.617-29.464 30.792-36.694 4.174-7.229 14.126-26.088 16.382-45.013 2.063-17.309-2.728-29.068-14.648-35.95z" fill="#1f2125" opacity="1" data-original="#000000" class=""></path></g></svg>