<svg xmlns="http://www.w3.org/2000/svg" version="1.1" xmlns:xlink="http://www.w3.org/1999/xlink" width="512" height="512" x="0" y="0" viewBox="0 0 512.001 512" style="enable-background:new 0 0 512 512" xml:space="preserve" class=""><g><path fill="#76e7e7" d="M10.313 327.016a182.847 182.847 0 0 1-4.497-41.067c.364-102.414 83.688-183.758 186.082-181.758 99.72 1.946 179.832 83.887 178.82 184.305-.991 98.281-80.82 178.774-179.09 180.543-28.679.516-55.882-5.59-80.183-16.887-14.539-6.761-31.37-5.742-45.492 1.852-14.484 7.793-30.777 11.652-44.543 13.531C7.617 469.415-3.457 456.2 1 443.012c19.855-58.735 9.313-115.992 9.313-115.996zm0 0" opacity="1" data-original="#76e7e7" class=""></path><path fill="#2eddda" d="M191.898 104.191c-47.664-.933-91.191 16.192-124.148 45.102-5.086 59.402 2.328 156.73 90.965 211.832 23.035 14.316 39.52 37.262 44.633 63.895 2.41 12.57 3.226 27.14.832 43.359 92.425-8.055 165.59-85.824 166.539-179.883 1.011-100.418-79.102-182.36-178.82-184.305zm0 0" opacity="1" data-original="#2eddda" class=""></path><path fill="#b0f0ef" d="M501.688 222.863a182.873 182.873 0 0 0 4.5-41.066C505.82 79.383 422.495-1.961 320.101.035c-99.72 1.945-179.832 83.89-178.82 184.309.991 98.277 80.82 178.773 179.09 180.543 28.679.515 55.882-5.59 80.183-16.89 14.539-6.759 31.37-5.74 45.492 1.855 14.488 7.793 30.777 11.652 44.547 13.53 13.789 1.88 24.863-11.335 20.406-24.523-19.852-58.734-9.313-115.996-9.313-115.996zm0 0" opacity="1" data-original="#b0f0ef"></path><g fill="#889cb0"><path d="M268.418 132.031h-24.336c-11.64 0-21.078 9.434-21.078 21.074v29.11c0 11.64 9.437 21.078 21.078 21.078 0 0 17.11-.102 24.895 15.762a64.933 64.933 0 0 1 6.156 20.98c1.27 10.84 15.543 13.82 21.097 4.426 10.692-18.086 18.594-46.027 7.754-85.465-4.39-15.965-19.011-26.965-35.566-26.965zM383.715 132.031h-24.336c-11.64 0-21.078 9.434-21.078 21.074v29.11c0 11.64 9.437 21.078 21.078 21.078 0 0 17.11-.102 24.894 15.762a64.933 64.933 0 0 1 6.157 20.98c1.27 10.84 15.543 13.82 21.097 4.426 10.692-18.086 18.594-46.027 7.754-85.465-4.39-15.965-19.011-26.965-35.566-26.965zm0 0" fill="#889cb0" opacity="1" data-original="#889cb0"></path></g></g></svg>