<svg xmlns="http://www.w3.org/2000/svg" version="1.1" xmlns:xlink="http://www.w3.org/1999/xlink" width="512" height="512" x="0" y="0" viewBox="0 0 480.074 480" style="enable-background:new 0 0 512 512" xml:space="preserve" class=""><g><path d="M472 415.926h-16v-16h-16v16h-16v-16h-16v16H288.945a22.352 22.352 0 0 0-20.144 12.426 6.406 6.406 0 0 1-5.785 3.574h-46.07a6.402 6.402 0 0 1-5.786-3.574 22.348 22.348 0 0 0-20.105-12.426H72v-144H56v144H40v-144H24v144H8a8 8 0 0 0-8 8v24c0 17.672 14.328 32 32 32h416c17.672 0 32-14.328 32-32v-24a8 8 0 0 0-8-8zm-8 32c0 8.836-7.164 16-16 16H32c-8.836 0-16-7.164-16-16v-16h175.055a6.402 6.402 0 0 1 5.785 3.574 22.348 22.348 0 0 0 20.105 12.426h46.11a22.345 22.345 0 0 0 20.144-12.426 6.405 6.405 0 0 1 5.746-3.574H464zM208 127.926v-16H64c-22.082.027-39.973 17.918-40 40v8h16v-8c0-13.254 10.746-24 24-24zm0 0" fill="#1f2125" opacity="1" data-original="#000000" class=""></path><path d="M56 159.926h168v-16H72c-8.836 0-16 7.164-16 16zM453.902 100.621l9.602-30.262a8.019 8.019 0 0 0-.688-6.43 8.018 8.018 0 0 0-5.214-3.82l-31.036-6.785-6.75-31a7.997 7.997 0 0 0-3.796-5.222 7.982 7.982 0 0 0-6.418-.72l-30.266 9.598L357.91 2.535C356.36.938 354.227.04 352 .04s-4.36.899-5.91 2.496l-21.395 23.488-30.297-9.64a7.998 7.998 0 0 0-10.246 5.91l-6.785 31.031-30.969 6.785a7.998 7.998 0 0 0-5.91 10.25l9.602 30.262-23.488 21.395c-1.664 1.515-2.614 3.66-2.614 5.91s.95 4.394 2.614 5.91l23.488 21.394-9.602 30.262a7.998 7.998 0 0 0 5.91 10.25l31.036 6.785 6.78 31.032a7.991 7.991 0 0 0 3.821 5.218 7.988 7.988 0 0 0 6.43.692l30.262-9.64 21.394 23.487a7.994 7.994 0 0 0 11.824 0l21.39-23.488 30.267 9.64a7.998 7.998 0 0 0 10.246-5.91l6.785-31.03 31.031-6.786a7.998 7.998 0 0 0 5.91-10.25l-9.597-30.262 23.488-21.394c1.66-1.516 2.61-3.66 2.61-5.91s-.95-4.395-2.61-5.91zm-14.566 46.234a7.996 7.996 0 0 0-2.23 8.344l8.496 26.79-27.465 6.007a8.01 8.01 0 0 0-6.098 6.098l-5.976 27.433-26.79-8.53a8.045 8.045 0 0 0-8.343 2.233L352 236.047l-18.93-20.8a7.99 7.99 0 0 0-5.91-2.61 7.915 7.915 0 0 0-2.398.379l-26.824 8.511-6.008-27.464a8.01 8.01 0 0 0-6.098-6.098l-27.434-5.977 8.532-26.789a7.998 7.998 0 0 0-2.235-8.344l-20.816-18.93 20.8-18.929a7.988 7.988 0 0 0 2.231-8.344l-8.512-26.789 27.465-6.008a8.01 8.01 0 0 0 6.098-6.097l5.976-27.434 26.79 8.531c2.98.95 6.238.079 8.343-2.234L352 19.805l18.93 20.8a7.988 7.988 0 0 0 8.343 2.23l26.79-8.51 6.007 27.464a8.01 8.01 0 0 0 6.098 6.098l27.465 6.008-8.528 26.793a8 8 0 0 0 2.23 8.343l20.786 18.895zm0 0" fill="#1f2125" opacity="1" data-original="#000000" class=""></path><path d="m306.344 162.27 79.996-80 11.316 11.312-80 80zM336 103.926c0-13.254-10.746-24-24-24s-24 10.746-24 24 10.746 24 24 24 24-10.746 24-24zm-32 0a8 8 0 1 1 16 0 8 8 0 0 1-16 0zM392 127.926c-13.254 0-24 10.746-24 24s10.746 24 24 24 24-10.746 24-24-10.746-24-24-24zm0 32a8 8 0 1 1 0-16.001 8 8 0 0 1 0 16zM207.71 214.063a7.936 7.936 0 0 0-7.444 2.093l-78.082 77.274-18.985 11.297c-12.601 7.328-18.289 22.523-13.597 36.328a30.396 30.396 0 0 0 25.175 20.687l16.664 33.719a7.995 7.995 0 0 0 7.2 4.457h31.472a7.998 7.998 0 0 0 6.7-3.613 8.006 8.006 0 0 0 .644-7.586l-16.562-38.235 86.968 1.442H248a7.995 7.995 0 0 0 6.512-3.356 8.004 8.004 0 0 0 1.047-7.254l-42.102-122.078a7.999 7.999 0 0 0-5.746-5.176zM104.8 335.925a14.744 14.744 0 0 1 6.567-17.48l12.496-7.415 13.992 27.672-11.847 5.863a15.316 15.316 0 0 1-12.703.414 14.825 14.825 0 0 1-8.504-9.054zm38.817 48-12.097-24.434c.503-.222 1.046-.308 1.55-.558l11.54-5.711 13.292 30.703zm9.985-49.528-16.672-33.007 65.597-64.914 34.235 99.265zM249.281 273.965l26.457-9.195 5.246 15.105-26.453 9.195zM228.492 220.781l17.645-18.39 11.547 11.078-17.649 18.39zM272 327.926h24v16h-24zM472 271.926h-16v-56h-16v56h-16v-16h-16v16h-88a8 8 0 0 0-8 8v96a8 8 0 0 0 8 8h152a8 8 0 0 0 8-8v-96a8 8 0 0 0-8-8zm-8 96H328v-80h136zm0 0" fill="#1f2125" opacity="1" data-original="#000000" class=""></path><path d="M344 303.926h32v16h-32zM392 303.926h56v16h-56zM344 335.926h104v16H344zM8 255.926h120a8 8 0 0 0 8-8v-64a8 8 0 0 0-8-8H8a8 8 0 0 0-8 8v64a8 8 0 0 0 8 8zm8-64h104v48H16zm0 0" fill="#1f2125" opacity="1" data-original="#000000" class=""></path><path d="M32 207.926h16v16H32zM64 207.926h40v16H64zm0 0" fill="#1f2125" opacity="1" data-original="#000000" class=""></path></g></svg>