<svg xmlns="http://www.w3.org/2000/svg" version="1.1" xmlns:xlink="http://www.w3.org/1999/xlink" width="512" height="512" x="0" y="0" viewBox="0 0 512 512" style="enable-background:new 0 0 512 512" xml:space="preserve" class=""><g><path d="M255.173 254.005c12.97 0 23.521-10.552 23.521-23.522s-10.552-23.521-23.521-23.521-23.521 10.552-23.521 23.521c-.001 12.97 10.551 23.522 23.521 23.522zm0-32.044c4.699 0 8.521 3.822 8.521 8.521s-3.822 8.522-8.521 8.522-8.521-3.823-8.521-8.522 3.822-8.521 8.521-8.521z" fill="#03A297" opacity="1" data-original="#000000" class=""></path><path d="M191.728 230.988c-4.143 0-7.5 3.357-7.5 7.5s3.357 7.5 7.5 7.5h7c1.376 11.07 5.75 21.216 12.289 29.605l-4.969 4.969a7.498 7.498 0 0 0 5.304 12.802 7.478 7.478 0 0 0 5.304-2.197l4.968-4.969c8.389 6.539 18.535 10.912 29.604 12.289v7c0 4.143 3.357 7.5 7.5 7.5s7.5-3.357 7.5-7.5v-7c11.069-1.376 21.214-5.75 29.603-12.288l4.969 4.969c1.465 1.464 3.385 2.196 5.304 2.196s3.839-.732 5.304-2.196a7.5 7.5 0 0 0 0-10.607l-4.969-4.969c6.539-8.389 10.913-18.535 12.289-29.604h7c4.143 0 7.5-3.357 7.5-7.5s-3.357-7.5-7.5-7.5h-7c-1.376-11.069-5.75-21.215-12.289-29.604l4.969-4.969a7.5 7.5 0 0 0-10.607-10.607l-4.969 4.969c-8.389-6.538-18.534-10.912-29.603-12.288v-7.001c0-4.143-3.357-7.5-7.5-7.5s-7.5 3.357-7.5 7.5v7.001c-11.069 1.376-21.215 5.75-29.604 12.289l-4.968-4.969a7.5 7.5 0 0 0-10.606-.001 7.498 7.498 0 0 0-.001 10.606l4.969 4.969c-6.539 8.389-10.913 18.535-12.289 29.604h-7.002zm67-37.98c25.078 0 45.481 20.402 45.481 45.48s-20.403 45.481-45.481 45.481-45.481-20.403-45.481-45.481 20.402-45.48 45.481-45.48z" fill="#03A297" opacity="1" data-original="#000000" class=""></path><path d="M382.075 174.834a7.499 7.499 0 0 0-5.686 8.953 146.521 146.521 0 0 1 3.496 31.855c0 75.627-56.713 138.177-131.919 145.495a7.5 7.5 0 0 0-6.773 7.465v15.372c0 4.143 3.357 7.5 7.5 7.5s7.5-3.357 7.5-7.5v-8.712c37.011-5.195 71.077-23.155 96.534-51.037 27.187-29.775 42.158-68.338 42.158-108.583a161.54 161.54 0 0 0-3.856-35.123c-.903-4.042-4.914-6.59-8.954-5.685z" fill="#03A297" opacity="1" data-original="#000000" class=""></path><path d="M433 0h-43.149c-12.406 0-22.5 10.094-22.5 22.5 0 9.13 5.467 17.008 13.298 20.531l-46.575 46.576c-28.485-22.722-63.858-35.158-100.38-35.158-33.027 0-63.761 9.99-89.352 27.098a39.55 39.55 0 0 0-5.459-11.874l2.119-2.119a7.5 7.5 0 0 0-10.607-10.607l-2.119 2.119a39.509 39.509 0 0 0-14.776-6.13v-2.987c0-4.143-3.357-7.5-7.5-7.5s-7.5 3.357-7.5 7.5v2.987a39.516 39.516 0 0 0-14.776 6.13l-2.119-2.119a7.5 7.5 0 0 0-10.607 10.607l2.119 2.119a39.509 39.509 0 0 0-6.13 14.776H64c-4.143 0-7.5 3.357-7.5 7.5s3.357 7.5 7.5 7.5h2.987a39.516 39.516 0 0 0 6.13 14.776l-2.119 2.119a7.5 7.5 0 1 0 10.608 10.607l2.119-2.119a39.532 39.532 0 0 0 13.096 5.767c-15.404 24.702-24.32 53.849-24.32 85.043 0 40.245 14.972 78.808 42.158 108.583 25.458 27.882 59.524 45.842 96.535 51.037v51.671h-9.349c-12.406 0-22.5 10.094-22.5 22.5s10.094 22.5 22.5 22.5h9.349V489.5c0 12.406 10.094 22.5 22.5 22.5s22.5-10.094 22.5-22.5v-17.566h9.348c12.406 0 22.5-10.094 22.5-22.5s-10.094-22.5-22.5-22.5h-9.348v-10.651c0-4.143-3.357-7.5-7.5-7.5s-7.5 3.357-7.5 7.5v18.151c0 4.143 3.357 7.5 7.5 7.5h16.848c4.136 0 7.5 3.364 7.5 7.5s-3.364 7.5-7.5 7.5h-16.848a7.499 7.499 0 0 0-7.5 7.5V489.5c0 4.136-3.364 7.5-7.5 7.5s-7.5-3.364-7.5-7.5v-25.066c0-4.143-3.357-7.5-7.5-7.5h-16.849c-4.136 0-7.5-3.364-7.5-7.5s3.364-7.5 7.5-7.5h16.849c4.143 0 7.5-3.357 7.5-7.5v-65.831a7.5 7.5 0 0 0-6.773-7.465C144.213 353.819 87.5 291.27 87.5 215.643c0-80.611 65.582-146.193 146.193-146.193 35.237 0 69.3 12.771 95.913 35.959a7.498 7.498 0 0 0 10.23-.351l62.254-62.254A7.5 7.5 0 0 0 396.786 30h-6.937c-4.136 0-7.5-3.364-7.5-7.5s3.364-7.5 7.5-7.5H433c4.136 0 7.5 3.364 7.5 7.5v43.148c0 4.136-3.364 7.5-7.5 7.5s-7.5-3.364-7.5-7.5v-6.936a7.499 7.499 0 0 0-12.804-5.304l-62.855 62.855a7.501 7.501 0 0 0-.621 9.902 146.734 146.734 0 0 1 17.477 28.821 7.5 7.5 0 0 0 13.636-6.248 161.51 161.51 0 0 0-15.305-26.449l47.44-47.44c3.524 7.832 11.401 13.298 20.531 13.298 12.406 0 22.5-10.094 22.5-22.5V22.5C455.5 10.094 445.406 0 433 0zM106.556 116.664c-.186.004-.369.018-.556.018-13.638 0-24.732-11.095-24.732-24.732S92.362 67.217 106 67.217c13.561 0 24.602 10.971 24.727 24.503a162.573 162.573 0 0 0-24.171 24.944z" fill="#03A297" opacity="1" data-original="#000000" class=""></path><path d="M143.7 289.06a7.5 7.5 0 1 0-11.614 9.494c25.083 30.684 62.117 48.282 101.606 48.282 72.34 0 131.192-58.854 131.192-131.193S306.033 84.449 233.693 84.449 102.5 143.303 102.5 215.643c0 18.872 3.941 37.102 11.715 54.18a7.5 7.5 0 0 0 9.933 3.72 7.5 7.5 0 0 0 3.72-9.933c-6.879-15.115-10.367-31.253-10.367-47.967 0-64.069 52.124-116.193 116.193-116.193 64.068 0 116.192 52.124 116.192 116.193s-52.124 116.193-116.192 116.193c-34.97 0-67.771-15.591-89.994-42.776z" fill="#03A297" opacity="1" data-original="#000000" class=""></path></g></svg>