<svg xmlns="http://www.w3.org/2000/svg" version="1.1" xmlns:xlink="http://www.w3.org/1999/xlink" width="512" height="512" x="0" y="0" viewBox="0 0 64 64" style="enable-background:new 0 0 512 512" xml:space="preserve" class=""><g><path d="M46 15c1.7 0 3 1.4 3 3 0 .6.4 1 1 1s1-.4 1-1c0-2.8-2.2-5-5-5-.6 0-1 .4-1 1s.4 1 1 1zM19.6 25H18c-.6 0-1 .4-1 1s.4 1 1 1h1.6c.6 0 1-.4 1-1s-.4-1-1-1zM38 37h-2.4l3.3-6.6c.2-.4.1-.9-.2-1.2s-.8-.3-1.2-.1l-12 8c-.4.2-.5.7-.4 1.1s.5.7 1 .7h2.4l-3.3 6.6c-.2.4-.1.9.2 1.2s1 .2 1.2.1l4.4-2.9c.5-.3.6-.9.3-1.4s-.9-.6-1.4-.3l-1.2.8 2.3-4.6c.5-1.8-1.6-1.4-1.6-1.4l6.1-4.1-2.3 4.6c-.5 1.8 1.6 1.4 1.6 1.4l-1.3.8c-.5.3-.6.9-.3 1.4s.9.6 1.4.3l4-2.7c.4-.2.5-.7.4-1.1s-.6-.6-1-.6zM40 15h2c.6 0 1-.4 1-1s-.4-1-1-1h-2c-.6 0-1 .4-1 1s.4 1 1 1zM16 45h-1v-1c0-.6-.4-1-1-1s-1 .4-1 1v2c0 .6.4 1 1 1h2c.6 0 1-.4 1-1s-.4-1-1-1zM62 61h-2c-.6 0-1 .4-1 1s.4 1 1 1h2c.6 0 1-.4 1-1s-.4-1-1-1z" fill="#03A297" opacity="1" data-original="#000000" class=""></path><path d="M56 61h-4.3c2-1.6 3.3-4.2 3.3-7V18c0-4.6-3.5-8.4-8-8.9V4c0-1.7-1.3-3-3-3H20c-1.7 0-3 1.3-3 3v5.1c-4.5.5-8 4.3-8 8.9v36c0 2.8 1.3 5.3 3.3 7H10c-.6 0-1 .4-1 1s.4 1 1 1h27.3c.6 0 1-.4 1-1s-.4-1-1-1H18c-3.8 0-7-3.1-7-7v-3h42v3c0 3.8-3.1 7-7 7h-5c-.6 0-1 .4-1 1s.4 1 1 1h15c.6 0 1-.4 1-1s-.4-1-1-1zM43 3h1c.6 0 1 .4 1 1v5h-2zm-4 0h2v6h-2zm-4 0h2v6h-2zm-4 0h2v6h-2zm-4 0h2v6h-2zm-4 0h2v6h-2zm-4 1c0-.6.4-1 1-1h1v6h-2zm-8 45V27h3c.6 0 1-.4 1-1s-.4-1-1-1h-3v-7c0-3.8 3.1-7 7-7h28c3.8 0 7 3.1 7 7v7H23.6c-.6 0-1 .4-1 1s.4 1 1 1H53v22zM6 61H2c-.6 0-1 .4-1 1s.4 1 1 1h4c.6 0 1-.4 1-1s-.4-1-1-1z" fill="#03A297" opacity="1" data-original="#000000" class=""></path></g></svg>