<svg xmlns="http://www.w3.org/2000/svg" version="1.1" xmlns:xlink="http://www.w3.org/1999/xlink" width="512" height="512" x="0" y="0" viewBox="0 0 64 64" style="enable-background:new 0 0 512 512" xml:space="preserve" class=""><g><path d="M32 32c4.962 0 9-4.038 9-9s-4.038-9-9-9-9 4.038-9 9 4.038 9 9 9zm0-16c3.86 0 7 3.14 7 7s-3.14 7-7 7-7-3.14-7-7 3.14-7 7-7z" fill="#1f2125" opacity="1" data-original="#000000" class=""></path><path d="M2.13 28.493A1 1 0 0 0 3 29h16.629l.044 2.25a.998.998 0 0 0 .673.925l3.986 1.38 2.542 3.366a1 1 0 0 0 1.089.354L32 36.045l4.036 1.229a1.007 1.007 0 0 0 1.09-.354l2.543-3.366 3.986-1.38a1 1 0 0 0 .673-.925L44.371 29H61a1 1 0 0 0 .857-1.514L59.166 23l2.691-4.485A1 1 0 0 0 61 17H44.371l-.044-2.25a.998.998 0 0 0-.673-.925l-3.986-1.38-2.543-3.365a1 1 0 0 0-1.089-.354L32 9.955l-4.036-1.229a1.002 1.002 0 0 0-1.089.354l-2.543 3.366-3.986 1.38a1 1 0 0 0-.673.925L19.629 17H3a1 1 0 0 0-.857 1.514L4.834 23l-2.691 4.485a.999.999 0 0 0-.013 1.008zM59.234 19l-2.091 3.485a1 1 0 0 0 0 1.029L59.234 27H44.432l2.388-3.429a1 1 0 0 0 0-1.143L44.432 19zm-37.829.861a1 1 0 0 0 .179-.552l.075-3.823 3.615-1.251c.188-.065.351-.184.471-.342l2.305-3.051 3.659 1.115c.19.058.393.058.583 0l3.659-1.114 2.305 3.051c.12.158.283.277.471.342l3.615 1.251.075 3.823c.004.198.066.39.18.552L44.781 23l-2.186 3.139a1 1 0 0 0-.179.552l-.075 3.823-3.615 1.251a1.002 1.002 0 0 0-.471.342l-2.305 3.051-3.659-1.115a1.03 1.03 0 0 0-.583 0l-3.659 1.114-2.305-3.051a1.002 1.002 0 0 0-.471-.342l-3.615-1.251-.075-3.823a.993.993 0 0 0-.18-.552L19.219 23zM6.857 23.515a1 1 0 0 0 0-1.029L4.766 19h14.801l-2.388 3.429a1 1 0 0 0 0 1.143L19.568 27H4.766z" fill="#1f2125" opacity="1" data-original="#000000" class=""></path><path d="m31 27 .045-.001a1 1 0 0 0 .723-.359l5-6-1.536-1.28-4.299 5.159-2.226-2.226-1.414 1.414 3 3A1 1 0 0 0 31 27zM36.973 60.53a115 115 0 0 1 .057 1.498l1.999-.056a91.703 91.703 0 0 0-.058-1.526c-.137-3.239-.309-7.269 1.428-9.713l3.641-5.143a.874.874 0 0 1 1.455.045c.077.125.235.457.067.796l-2.142 3.705a3 3 0 0 0-.403 1.502h2c0-.176.046-.349.134-.5l.212-.367 4.516-1.507.032.016.016-.032 2.726-.91a3.009 3.009 0 0 0 1.224-.856l4.576-5.339a.89.89 0 0 1 1.334-.019c.277.292.285.798.02 1.178l-5.564 7.949c-.14.199-.302.38-.483.539l-3.779 3.307c-1.318 1.154-4.364 4.127-4.172 6.81l1.995-.144c-.105-1.46 1.816-3.693 3.494-5.161l3.779-3.307c.301-.264.571-.564.804-.896l5.564-7.95c.813-1.161.727-2.717-.206-3.7a2.969 2.969 0 0 0-2.182-.915 2.9 2.9 0 0 0-2.123 1.008l-.297.346.068-.409a2.528 2.528 0 0 0-2.495-2.946 2.528 2.528 0 0 0-2.455 1.916l-.683 2.735-2.565 5.13-1.637.546.45-.78c.449-.897.402-1.942-.125-2.795s-1.441-1.363-2.444-1.363c-.931 0-1.808.454-2.345 1.213l-3.623 5.119c-2.148 3.023-1.961 7.433-1.81 10.976zm15.938-17.251a.99.99 0 0 0 .076-.205l.71-2.841a.53.53 0 0 1 1.037.216l-.612 3.675-1.763 2.056a.97.97 0 0 1-.374.273l-.793.264zM19.281 45.221c.283 0 .55.138.713.369l3.625 5.122c1.752 2.466 1.581 6.497 1.443 9.735-.022.527-.044 1.038-.057 1.525l1.999.056c.013-.478.035-.979.057-1.496.15-3.544.337-7.954-1.812-10.979l-.003.002c-.194-.283-.895-1.272-3.619-5.122a2.878 2.878 0 0 0-2.346-1.213 2.854 2.854 0 0 0-2.444 1.362c-.527.854-.574 1.898-.097 2.849l.42.726-1.634-.545-2.565-5.13-.684-2.735a2.528 2.528 0 0 0-4.385-1.021 2.523 2.523 0 0 0-.564 2.05l.068.409-.297-.345a2.9 2.9 0 0 0-2.123-1.008 2.992 2.992 0 0 0-2.182.915c-.932.984-1.018 2.54-.206 3.7l5.565 7.95c.231.33.501.631.803.896l3.779 3.307c1.677 1.468 3.599 3.7 3.494 5.161l1.995.144c.192-2.683-2.853-5.656-4.171-6.81l-3.779-3.307a3.04 3.04 0 0 1-.482-.537L4.226 43.3c-.265-.379-.257-.886.02-1.177a.925.925 0 0 1 .681-.291.89.89 0 0 1 .654.31l4.576 5.338c.328.383.751.68 1.259.87l2.691.898.016.031.031-.016 4.517 1.507.212.368c.053.093.134.433.134.694h2c0-.371-.085-1.145-.403-1.695L18.5 46.484a.86.86 0 0 1 .038-.85.863.863 0 0 1 .743-.413zm-7.198 1.244a1.003 1.003 0 0 1-.408-.286l-1.763-2.056-.612-3.675c-.035-.21.059-.358.118-.428s.19-.188.404-.188c.244 0 .455.165.514.401l.71 2.842c.018.071.043.139.076.205l1.72 3.439zM30.549 41.933a19.26 19.26 0 0 1-1.885-.238l-.348 1.97c.686.121 1.386.209 2.081.262zM34.343 41.847c-.625.077-1.263.123-1.893.137l.045 2a21.232 21.232 0 0 0 2.093-.152zM26.814 41.272a18.93 18.93 0 0 1-1.799-.608l-.733 1.861c.651.257 1.32.483 1.988.672zM36.212 41.522l.441 1.95c.68-.154 1.36-.344 2.022-.567l-.637-1.896c-.596.201-1.211.373-1.826.513zM23.288 39.879a19.267 19.267 0 0 1-1.641-.955L20.556 40.6c.583.38 1.193.735 1.814 1.055zM41.496 39.448a19.21 19.21 0 0 1-1.689.867l.823 1.823a21.04 21.04 0 0 0 1.866-.958zM20.11 37.81c-.491-.395-.969-.82-1.419-1.262l-1.402 1.427c.497.489 1.025.958 1.568 1.394zM44.575 37.232c-.473.418-.972.816-1.484 1.185l1.169 1.623a21.226 21.226 0 0 0 1.64-1.309zM14.605 34.755c.39.577.815 1.141 1.262 1.677l1.536-1.281a19.334 19.334 0 0 1-1.142-1.517zM45.934 35.906l1.467 1.36c.475-.513.929-1.053 1.348-1.607l-1.593-1.208c-.38.501-.791.991-1.222 1.455zM12.611 31.068c.27.646.574 1.282.905 1.894l1.759-.951a18.812 18.812 0 0 1-.818-1.713zM50.936 32.081l-1.802-.867c-.274.57-.579 1.131-.907 1.668l1.706 1.043c.362-.594.7-1.215 1.003-1.844zM13.55 14.198l1.815.84c.263-.57.561-1.135.883-1.68l-1.722-1.018a21.487 21.487 0 0 0-.976 1.858zM51.885 14.662a21.175 21.175 0 0 0-.931-1.88l-1.746.975c.308.552.592 1.124.843 1.702zM18.495 10.302l-1.484-1.34a20.82 20.82 0 0 0-1.326 1.627l1.611 1.185c.373-.508.776-1.003 1.199-1.472zM49.838 11.003a21.342 21.342 0 0 0-1.285-1.658l-1.518 1.302c.412.48.803.985 1.164 1.501zM19.836 8.956c.467-.424.961-.83 1.468-1.206l-1.191-1.607c-.56.415-1.105.863-1.621 1.332zM44.291 8.027c.496.386.979.804 1.437 1.241l1.381-1.446a21.022 21.022 0 0 0-1.588-1.371zM24.561 5.804l-.85-1.81a20.79 20.79 0 0 0-1.852.985l1.026 1.717a18.942 18.942 0 0 1 1.676-.892zM41.084 6.004c.562.28 1.119.593 1.653.93l1.067-1.691a21.077 21.077 0 0 0-1.829-1.03zM26.318 5.085a19.105 19.105 0 0 1 1.819-.538l-.47-1.944c-.68.164-1.357.365-2.013.595zM40.052 3.373a20.937 20.937 0 0 0-1.999-.643l-.515 1.933c.607.161 1.214.357 1.805.581zM30.003 4.195a18.912 18.912 0 0 1 1.891-.164l-.074-1.999c-.698.026-1.402.087-2.091.182zM33.792 4.054c.634.04 1.27.11 1.889.211L36 2.291a21.454 21.454 0 0 0-2.084-.233z" fill="#1f2125" opacity="1" data-original="#000000" class=""></path></g></svg>